<svg xmlns="http://www.w3.org/2000/svg" xmlns:xlink="http://www.w3.org/1999/xlink" contentStyleType="text/css" data-diagram-type="DESCRIPTION" height="887px" preserveAspectRatio="none" style="width:3438px;height:887px;background:#FFFFFF;" version="1.1" viewBox="0 0 3438 887" width="3438px" zoomAndPan="magnify"><?plantuml 1.2026.4beta2?><defs/><g><g class="title" data-source-line="1"><text fill="#000000" font-family="sans-serif" font-size="14" font-weight="700" lengthAdjust="spacing" textLength="473.2041" x="1479.104" y="22.9951">Diagrama de componentes - Arquitectura logica TPScouting</text></g><!--cluster Cliente--><g class="cluster" data-qualified-name="Cliente" data-source-line="7" id="ent0003"><path d="M8.5,182.3869 L65.0215,182.3869 A3.75,3.75 0 0 1 67.5215,184.8869 L74.5215,204.6837 L264.5,204.6837 A2.5,2.5 0 0 1 267,207.1837 L267,393.6269 A2.5,2.5 0 0 1 264.5,396.1269 L8.5,396.1269 A2.5,2.5 0 0 1 6,393.6269 L6,184.8869 A2.5,2.5 0 0 1 8.5,182.3869" fill="none" style="stroke:#000000;stroke-width:1.5;"/><line style="stroke:#000000;stroke-width:1.5;" x1="6" x2="74.5215" y1="204.6837" y2="204.6837"/><text fill="#000000" font-family="sans-serif" font-size="14" font-weight="700" lengthAdjust="spacing" textLength="55.5215" x="10" y="197.382">Cliente</text></g><!--cluster Aplicacion Flask--><g class="cluster" data-qualified-name="Aplicacion Flask" data-source-line="13" id="ent0007"><path d="M293.5,300.6869 L421.71,300.6869 A3.75,3.75 0 0 1 424.21,303.1869 L431.21,322.9838 L1944.5,322.9838 A2.5,2.5 0 0 1 1947,325.4838 L1947,870.3569 A2.5,2.5 0 0 1 1944.5,872.8569 L293.5,872.8569 A2.5,2.5 0 0 1 291,870.3569 L291,303.1869 A2.5,2.5 0 0 1 293.5,300.6869" fill="none" style="stroke:#000000;stroke-width:1.5;"/><line style="stroke:#000000;stroke-width:1.5;" x1="291" x2="431.21" y1="322.9838" y2="322.9838"/><text fill="#000000" font-family="sans-serif" font-size="14" font-weight="700" lengthAdjust="spacing" textLength="127.21" x="295" y="315.682">Aplicacion Flask</text></g><!--cluster Blueprints / Rutas--><g class="cluster" data-qualified-name="Aplicacion Flask.Blueprints . Rutas" data-source-line="17" id="ent0010"><path d="M891.5,435.2769 L1034.2295,435.2769 A3.75,3.75 0 0 1 1036.7295,437.7769 L1043.7295,457.5737 L1920.5,457.5737 A2.5,2.5 0 0 1 1923,460.0737 L1923,552.6669 A2.5,2.5 0 0 1 1920.5,555.1669 L891.5,555.1669 A2.5,2.5 0 0 1 889,552.6669 L889,437.7769 A2.5,2.5 0 0 1 891.5,435.2769" fill="none" style="stroke:#000000;stroke-width:1.5;"/><line style="stroke:#000000;stroke-width:1.5;" x1="889" x2="1043.7295" y1="457.5737" y2="457.5737"/><text fill="#000000" font-family="sans-serif" font-size="14" font-weight="700" lengthAdjust="spacing" textLength="141.7295" x="893" y="450.272">Blueprints / Rutas</text></g><!--cluster Servicios--><g class="cluster" data-qualified-name="Aplicacion Flask.Servicios" data-source-line="26" id="ent0017"><path d="M317.5,443.4269 L389.9561,443.4269 A3.75,3.75 0 0 1 392.4561,445.9269 L399.4561,465.7237 L711.5,465.7237 A2.5,2.5 0 0 1 714,468.2237 L714,689.2669 A2.5,2.5 0 0 1 711.5,691.7669 L317.5,691.7669 A2.5,2.5 0 0 1 315,689.2669 L315,445.9269 A2.5,2.5 0 0 1 317.5,443.4269" fill="none" style="stroke:#000000;stroke-width:1.5;"/><line style="stroke:#000000;stroke-width:1.5;" x1="315" x2="399.4561" y1="465.7237" y2="465.7237"/><text fill="#000000" font-family="sans-serif" font-size="14" font-weight="700" lengthAdjust="spacing" textLength="71.4561" x="319" y="458.422">Servicios</text></g><!--cluster Modulo ML--><g class="cluster" data-qualified-name="Aplicacion Flask.Modulo ML" data-source-line="32" id="ent0021"><path d="M1513.5,588.1669 L1600.1816,588.1669 A3.75,3.75 0 0 1 1602.6816,590.6669 L1609.6816,610.4637 L1920.5,610.4637 A2.5,2.5 0 0 1 1923,612.9637 L1923,846.3569 A2.5,2.5 0 0 1 1920.5,848.8569 L1513.5,848.8569 A2.5,2.5 0 0 1 1511,846.3569 L1511,590.6669 A2.5,2.5 0 0 1 1513.5,588.1669" fill="none" style="stroke:#000000;stroke-width:1.5;"/><line style="stroke:#000000;stroke-width:1.5;" x1="1511" x2="1609.6816" y1="610.4637" y2="610.4637"/><text fill="#000000" font-family="sans-serif" font-size="14" font-weight="700" lengthAdjust="spacing" textLength="85.6816" x="1515" y="603.162">Modulo ML</text></g><!--cluster Persistencia--><g class="cluster" data-qualified-name="Persistencia" data-source-line="40" id="ent0026"><path d="M1973.5,740.7669 L2071.3242,740.7669 A3.75,3.75 0 0 1 2073.8242,743.2669 L2080.8242,763.0637 L2278.5,763.0637 A2.5,2.5 0 0 1 2281,765.5637 L2281,850.8569 A2.5,2.5 0 0 1 2278.5,853.3569 L1973.5,853.3569 A2.5,2.5 0 0 1 1971,850.8569 L1971,743.2669 A2.5,2.5 0 0 1 1973.5,740.7669" fill="none" style="stroke:#000000;stroke-width:1.5;"/><line style="stroke:#000000;stroke-width:1.5;" x1="1971" x2="2080.8242" y1="763.0637" y2="763.0637"/><text fill="#000000" font-family="sans-serif" font-size="14" font-weight="700" lengthAdjust="spacing" textLength="96.8242" x="1975" y="755.762">Persistencia</text></g><!--cluster Artefactos ML--><g class="cluster" data-qualified-name="Artefactos ML" data-source-line="45" id="ent0029"><path d="M2307.5,751.9069 L2418.6338,751.9069 A3.75,3.75 0 0 1 2421.1338,754.4069 L2428.1338,774.2037 L3109.5,774.2037 A2.5,2.5 0 0 1 3112,776.7037 L3112,839.7069 A2.5,2.5 0 0 1 3109.5,842.2069 L2307.5,842.2069 A2.5,2.5 0 0 1 2305,839.7069 L2305,754.4069 A2.5,2.5 0 0 1 2307.5,751.9069" fill="none" style="stroke:#000000;stroke-width:1.5;"/><line style="stroke:#000000;stroke-width:1.5;" x1="2305" x2="2428.1338" y1="774.2037" y2="774.2037"/><text fill="#000000" font-family="sans-serif" font-size="14" font-weight="700" lengthAdjust="spacing" textLength="110.1338" x="2309" y="766.902">Artefactos ML</text></g><!--entity Browser--><g class="entity" data-qualified-name="Cliente.Browser" data-source-line="8" id="ent0004"><rect fill="#F1F1F1" height="36.2969" rx="2.5" ry="2.5" style="stroke:#181818;stroke-width:0.5;" width="132.417" x="118.79" y="217.3869"/><text fill="#000000" font-family="sans-serif" font-size="14" lengthAdjust="spacing" textLength="112.417" x="128.79" y="240.382">Navegador Web</text></g><!--entity Bootstrap--><g class="entity" data-qualified-name="Cliente.Bootstrap" data-source-line="9" id="ent0005"><rect fill="#F1F1F1" height="36.2969" rx="2.5" ry="2.5" style="stroke:#181818;stroke-width:0.5;" width="120.2285" x="130.89" y="343.8369"/><text fill="#000000" font-family="sans-serif" font-size="14" lengthAdjust="spacing" textLength="100.2285" x="140.89" y="366.832">Bootstrap CSS</text></g><!--entity ChartJS--><g class="entity" data-qualified-name="Cliente.ChartJS" data-source-line="10" id="ent0006"><rect fill="#F1F1F1" height="36.2969" rx="2.5" ry="2.5" style="stroke:#181818;stroke-width:0.5;" width="74.1064" x="21.95" y="343.8369"/><text fill="#000000" font-family="sans-serif" font-size="14" lengthAdjust="spacing" textLength="54.1064" x="31.95" y="366.832">Chart.js</text></g><!--entity App--><g class="entity" data-qualified-name="Aplicacion Flask.App" data-source-line="14" id="ent0008"><rect fill="#F1F1F1" height="52.5938" rx="2.5" ry="2.5" style="stroke:#181818;stroke-width:0.5;" width="222.0498" x="1053.98" y="335.6869"/><text fill="#000000" font-family="sans-serif" font-size="14" lengthAdjust="spacing" textLength="47.9746" x="1063.98" y="358.682">app.py</text><text fill="#000000" font-family="sans-serif" font-size="14" lengthAdjust="spacing" textLength="202.0498" x="1063.98" y="374.9789">Inicializacion y configuracion</text></g><!--entity Templates--><g class="entity" data-qualified-name="Aplicacion Flask.Templates" data-source-line="15" id="ent0009"><rect fill="#F1F1F1" height="36.2969" rx="2.5" ry="2.5" style="stroke:#181818;stroke-width:0.5;" width="136.2725" x="732.86" y="486.5769"/><text fill="#000000" font-family="sans-serif" font-size="14" lengthAdjust="spacing" textLength="116.2725" x="742.86" y="509.572">Jinja2 Templates</text></g><!--entity Auth--><g class="entity" data-qualified-name="Aplicacion Flask.Blueprints . Rutas.Auth" data-source-line="18" id="ent0011"><rect fill="#F1F1F1" height="52.5938" rx="2.5" ry="2.5" style="stroke:#181818;stroke-width:0.5;" width="191.6504" x="1164.17" y="478.4269"/><text fill="#000000" font-family="sans-serif" font-size="14" lengthAdjust="spacing" textLength="53.4365" x="1174.17" y="501.422">auth.py</text><text fill="#000000" font-family="sans-serif" font-size="14" lengthAdjust="spacing" textLength="171.6504" x="1174.17" y="517.7189">Login / Logout / Registro</text></g><!--entity Players--><g class="entity" data-qualified-name="Aplicacion Flask.Blueprints . Rutas.Players" data-source-line="19" id="ent0012"><rect fill="#F1F1F1" height="68.8906" rx="2.5" ry="2.5" style="stroke:#181818;stroke-width:0.5;" width="208.624" x="1390.69" y="470.2769"/><text fill="#000000" font-family="sans-serif" font-size="14" lengthAdjust="spacing" textLength="72.9258" x="1400.69" y="493.272">players.py</text><text fill="#000000" font-family="sans-serif" font-size="14" lengthAdjust="spacing" textLength="188.624" x="1400.69" y="509.5689">Jugadores, ficha, atributos,</text><text fill="#000000" font-family="sans-serif" font-size="14" lengthAdjust="spacing" textLength="164.6504" x="1400.69" y="525.8657">estadisticas, prediccion</text></g><!--entity Dashboard--><g class="entity" data-qualified-name="Aplicacion Flask.Blueprints . Rutas.Dashboard" data-source-line="20" id="ent0013"><rect fill="#F1F1F1" height="52.5938" rx="2.5" ry="2.5" style="stroke:#181818;stroke-width:0.5;" width="116.0586" x="1633.97" y="478.4269"/><text fill="#000000" font-family="sans-serif" font-size="14" lengthAdjust="spacing" textLength="95.9287" x="1643.97" y="501.422">dashboard.py</text><text fill="#000000" font-family="sans-serif" font-size="14" lengthAdjust="spacing" textLength="96.0586" x="1643.97" y="517.7189">Panel general</text></g><!--entity Compare--><g class="entity" data-qualified-name="Aplicacion Flask.Blueprints . Rutas.Compare" data-source-line="21" id="ent0014"><rect fill="#F1F1F1" height="52.5938" rx="2.5" ry="2.5" style="stroke:#181818;stroke-width:0.5;" width="122.8945" x="1784.55" y="478.4269"/><text fill="#000000" font-family="sans-serif" font-size="14" lengthAdjust="spacing" textLength="83.3574" x="1794.55" y="501.422">compare.py</text><text fill="#000000" font-family="sans-serif" font-size="14" lengthAdjust="spacing" textLength="102.8945" x="1794.55" y="517.7189">Comparadores</text></g><!--entity Staff--><g class="entity" data-qualified-name="Aplicacion Flask.Blueprints . Rutas.Staff" data-source-line="22" id="ent0015"><rect fill="#F1F1F1" height="52.5938" rx="2.5" ry="2.5" style="stroke:#181818;stroke-width:0.5;" width="72.8418" x="904.58" y="478.4269"/><text fill="#000000" font-family="sans-serif" font-size="14" lengthAdjust="spacing" textLength="52.8418" x="914.58" y="501.422">staff.py</text><text fill="#000000" font-family="sans-serif" font-size="14" lengthAdjust="spacing" textLength="32.8125" x="914.58" y="517.7189">Staff</text></g><!--entity Settings--><g class="entity" data-qualified-name="Aplicacion Flask.Blueprints . Rutas.Settings" data-source-line="23" id="ent0016"><rect fill="#F1F1F1" height="52.5938" rx="2.5" ry="2.5" style="stroke:#181818;stroke-width:0.5;" width="117.1523" x="1012.42" y="478.4269"/><text fill="#000000" font-family="sans-serif" font-size="14" lengthAdjust="spacing" textLength="77.4512" x="1022.42" y="501.422">settings.py</text><text fill="#000000" font-family="sans-serif" font-size="14" lengthAdjust="spacing" textLength="97.1523" x="1022.42" y="517.7189">Configuracion</text></g><!--entity Cache--><g class="entity" data-qualified-name="Aplicacion Flask.Servicios.Cache" data-source-line="27" id="ent0018"><rect fill="#F1F1F1" height="52.5938" rx="2.5" ry="2.5" style="stroke:#181818;stroke-width:0.5;" width="145.2412" x="552.38" y="478.4269"/><text fill="#000000" font-family="sans-serif" font-size="14" lengthAdjust="spacing" textLength="125.2412" x="562.38" y="501.422">services/cache.py</text><text fill="#000000" font-family="sans-serif" font-size="14" lengthAdjust="spacing" textLength="124.2979" x="562.38" y="517.7189">Cache in-memory</text></g><!--entity DBUtils--><g class="entity" data-qualified-name="Aplicacion Flask.Servicios.DBUtils" data-source-line="28" id="ent0019"><rect fill="#F1F1F1" height="52.5938" rx="2.5" ry="2.5" style="stroke:#181818;stroke-width:0.5;" width="246.0371" x="451.98" y="623.1669"/><text fill="#000000" font-family="sans-serif" font-size="14" lengthAdjust="spacing" textLength="75.8311" x="461.98" y="646.162">db_utils.py</text><text fill="#000000" font-family="sans-serif" font-size="14" lengthAdjust="spacing" textLength="226.0371" x="461.98" y="662.4589">Conexion y migraciones livianas</text></g><!--entity Sync--><g class="entity" data-qualified-name="Aplicacion Flask.Servicios.Sync" data-source-line="29" id="ent0020"><rect fill="#F1F1F1" height="52.5938" rx="2.5" ry="2.5" style="stroke:#181818;stroke-width:0.5;" width="186.5986" x="330.7" y="478.4269"/><text fill="#000000" font-family="sans-serif" font-size="14" lengthAdjust="spacing" textLength="117.3115" x="340.7" y="501.422">sync_shortlist.py</text><text fill="#000000" font-family="sans-serif" font-size="14" lengthAdjust="spacing" textLength="166.5986" x="340.7" y="517.7189">Sincronizacion de datos</text></g><!--entity Runtime--><g class="entity" data-qualified-name="Aplicacion Flask.Modulo ML.Runtime" data-source-line="33" id="ent0022"><rect fill="#F1F1F1" height="52.5938" rx="2.5" ry="2.5" style="stroke:#181818;stroke-width:0.5;" width="148.8027" x="1526.6" y="623.1669"/><text fill="#000000" font-family="sans-serif" font-size="14" lengthAdjust="spacing" textLength="98.998" x="1536.6" y="646.162">ml/runtime.py</text><text fill="#000000" font-family="sans-serif" font-size="14" lengthAdjust="spacing" textLength="128.8027" x="1536.6" y="662.4589">Carga e inferencia</text></g><!--entity Preprocessing--><g class="entity" data-qualified-name="Aplicacion Flask.Modulo ML.Preprocessing" data-source-line="34" id="ent0023"><rect fill="#F1F1F1" height="52.5938" rx="2.5" ry="2.5" style="stroke:#181818;stroke-width:0.5;" width="214.0928" x="1526.95" y="780.2669"/><text fill="#000000" font-family="sans-serif" font-size="14" lengthAdjust="spacing" textLength="120.6338" x="1536.95" y="803.262">preprocessing.py</text><text fill="#000000" font-family="sans-serif" font-size="14" lengthAdjust="spacing" textLength="194.0928" x="1536.95" y="819.5589">Transformacion de features</text></g><!--entity Train--><g class="entity" data-qualified-name="Aplicacion Flask.Modulo ML.Train" data-source-line="35" id="ent0024"><rect fill="#F1F1F1" height="52.5938" rx="2.5" ry="2.5" style="stroke:#181818;stroke-width:0.5;" width="196.6885" x="1710.66" y="623.1669"/><text fill="#000000" font-family="sans-serif" font-size="14" lengthAdjust="spacing" textLength="104.8018" x="1720.66" y="646.162">train_model.py</text><text fill="#000000" font-family="sans-serif" font-size="14" lengthAdjust="spacing" textLength="176.6885" x="1720.66" y="662.4589">Entrenamiento PlayerNet</text></g><!--entity PlayerNet--><g class="entity" data-qualified-name="Aplicacion Flask.Modulo ML.PlayerNet" data-source-line="36" id="ent0025"><rect fill="#F1F1F1" height="52.5938" rx="2.5" ry="2.5" style="stroke:#181818;stroke-width:0.5;" width="88.1406" x="1775.93" y="780.2669"/><text fill="#000000" font-family="sans-serif" font-size="14" lengthAdjust="spacing" textLength="68.1406" x="1785.93" y="803.262">PlayerNet</text><text fill="#000000" font-family="sans-serif" font-size="14" lengthAdjust="spacing" textLength="56.1709" x="1785.93" y="819.5589">PyTorch</text></g><!--entity SQLite--><g class="entity" data-qualified-name="Persistencia.SQLite" data-source-line="41" id="ent0027"><path d="M2136.62,785.7669 C2136.62,775.7669 2200.9999,775.7669 2200.9999,775.7669 C2200.9999,775.7669 2265.3798,775.7669 2265.3798,785.7669 L2265.3798,827.3606 C2265.3798,837.3606 2200.9999,837.3606 2200.9999,837.3606 C2200.9999,837.3606 2136.62,837.3606 2136.62,827.3606 L2136.62,785.7669" fill="#F1F1F1" style="stroke:#181818;stroke-width:0.5;"/><path d="M2136.62,785.7669 C2136.62,795.7669 2200.9999,795.7669 2200.9999,795.7669 C2200.9999,795.7669 2265.3798,795.7669 2265.3798,785.7669" fill="none" style="stroke:#181818;stroke-width:0.5;"/><text fill="#000000" font-family="sans-serif" font-size="14" lengthAdjust="spacing" textLength="45.6982" x="2146.62" y="812.762">SQLite</text><text fill="#000000" font-family="sans-serif" font-size="14" lengthAdjust="spacing" textLength="108.7598" x="2146.62" y="829.0589">Desarrollo local</text></g><!--entity PostgreSQL--><g class="entity" data-qualified-name="Persistencia.PostgreSQL" data-source-line="42" id="ent0028"><path d="M1986.69,785.7669 C1986.69,775.7669 2044.0015,775.7669 2044.0015,775.7669 C2044.0015,775.7669 2101.313,775.7669 2101.313,785.7669 L2101.313,827.3606 C2101.313,837.3606 2044.0015,837.3606 2044.0015,837.3606 C2044.0015,837.3606 1986.69,837.3606 1986.69,827.3606 L1986.69,785.7669" fill="#F1F1F1" style="stroke:#181818;stroke-width:0.5;"/><path d="M1986.69,785.7669 C1986.69,795.7669 2044.0015,795.7669 2044.0015,795.7669 C2044.0015,795.7669 2101.313,795.7669 2101.313,785.7669" fill="none" style="stroke:#181818;stroke-width:0.5;"/><text fill="#000000" font-family="sans-serif" font-size="14" lengthAdjust="spacing" textLength="80.7529" x="1996.69" y="812.762">PostgreSQL</text><text fill="#000000" font-family="sans-serif" font-size="14" lengthAdjust="spacing" textLength="94.623" x="1996.69" y="829.0589">Render demo</text></g><!--entity ModelPT--><g class="entity" data-qualified-name="Artefactos ML.ModelPT" data-source-line="46" id="ent0030"><rect fill="#F1F1F1" height="39.2969" rx="2.5" ry="2.5" style="stroke:#181818;stroke-width:0.5;" width="92.4189" x="2320.79" y="786.9069"/><polygon fill="#F1F1F1" points="2396.2089,791.9069,2396.2089,805.9069,2408.2089,805.9069,2408.2089,797.9069,2402.2089,791.9069,2396.2089,791.9069" style="stroke:#181818;stroke-width:0.5;"/><line style="stroke:#181818;stroke-width:0.5;" x1="2402.2089" x2="2402.2089" y1="791.9069" y2="797.9069"/><line style="stroke:#181818;stroke-width:0.5;" x1="2408.2089" x2="2402.2089" y1="797.9069" y2="797.9069"/><text fill="#000000" font-family="sans-serif" font-size="14" lengthAdjust="spacing" textLength="62.4189" x="2330.79" y="812.902">model.pt</text></g><!--entity Preprocessor--><g class="entity" data-qualified-name="Artefactos ML.Preprocessor" data-source-line="47" id="ent0031"><rect fill="#F1F1F1" height="39.2969" rx="2.5" ry="2.5" style="stroke:#181818;stroke-width:0.5;" width="164.1416" x="2447.93" y="786.9069"/><polygon fill="#F1F1F1" points="2595.0716,791.9069,2595.0716,805.9069,2607.0716,805.9069,2607.0716,797.9069,2601.0716,791.9069,2595.0716,791.9069" style="stroke:#181818;stroke-width:0.5;"/><line style="stroke:#181818;stroke-width:0.5;" x1="2601.0716" x2="2601.0716" y1="791.9069" y2="797.9069"/><line style="stroke:#181818;stroke-width:0.5;" x1="2607.0716" x2="2601.0716" y1="797.9069" y2="797.9069"/><text fill="#000000" font-family="sans-serif" font-size="14" lengthAdjust="spacing" textLength="134.1416" x="2457.93" y="812.902">preprocessor.joblib</text></g><!--entity Calibrator--><g class="entity" data-qualified-name="Artefactos ML.Calibrator" data-source-line="48" id="ent0032"><rect fill="#F1F1F1" height="39.2969" rx="2.5" ry="2.5" style="stroke:#181818;stroke-width:0.5;" width="221.5498" x="2647.23" y="786.9069"/><polygon fill="#F1F1F1" points="2851.7798,791.9069,2851.7798,805.9069,2863.7798,805.9069,2863.7798,797.9069,2857.7798,791.9069,2851.7798,791.9069" style="stroke:#181818;stroke-width:0.5;"/><line style="stroke:#181818;stroke-width:0.5;" x1="2857.7798" x2="2857.7798" y1="791.9069" y2="797.9069"/><line style="stroke:#181818;stroke-width:0.5;" x1="2863.7798" x2="2857.7798" y1="797.9069" y2="797.9069"/><text fill="#000000" font-family="sans-serif" font-size="14" lengthAdjust="spacing" textLength="191.5498" x="2657.23" y="812.902">probability_calibrator.joblib</text></g><!--entity Metadata--><g class="entity" data-qualified-name="Artefactos ML.Metadata" data-source-line="49" id="ent0033"><rect fill="#F1F1F1" height="39.2969" rx="2.5" ry="2.5" style="stroke:#181818;stroke-width:0.5;" width="192.1621" x="2903.92" y="786.9069"/><polygon fill="#F1F1F1" points="3079.0821,791.9069,3079.0821,805.9069,3091.0821,805.9069,3091.0821,797.9069,3085.0821,791.9069,3079.0821,791.9069" style="stroke:#181818;stroke-width:0.5;"/><line style="stroke:#181818;stroke-width:0.5;" x1="3085.0821" x2="3085.0821" y1="791.9069" y2="797.9069"/><line style="stroke:#181818;stroke-width:0.5;" x1="3091.0821" x2="3085.0821" y1="797.9069" y2="797.9069"/><text fill="#000000" font-family="sans-serif" font-size="14" lengthAdjust="spacing" textLength="162.1621" x="2913.92" y="812.902">training_metadata.json</text></g><!--entity User--><g class="entity" data-qualified-name="User" data-source-line="5" id="ent0002"><ellipse cx="184.9986" cy="51.2969" fill="#F1F1F1" rx="8" ry="8" style="stroke:#181818;stroke-width:0.5;"/><path d="M184.9986,59.2969 L184.9986,86.2969 M171.9986,67.2969 L197.9986,67.2969 M184.9986,86.2969 L171.9986,101.2969 M184.9986,86.2969 L197.9986,101.2969" fill="none" style="stroke:#181818;stroke-width:0.5;"/><text fill="#000000" font-family="sans-serif" font-size="14" lengthAdjust="spacing" textLength="53.2041" x="100.92" y="115.792">Usuario</text><text fill="#000000" font-family="sans-serif" font-size="14" lengthAdjust="spacing" textLength="168.1572" x="100.92" y="132.0889">Scout / Director / Admin</text></g><g class="entity" data-qualified-name="GMN66" data-source-line="92" id="ent0067"><path d="M3130.58,786.4269 L3130.58,826.6925 L3423.412,826.6925 L3423.412,796.4269 L3413.412,786.4269 L3130.58,786.4269" fill="#FEFFDD" style="stroke:#181818;stroke-width:0.5;"/><path d="M3413.412,786.4269 L3413.412,796.4269 L3423.412,796.4269 L3413.412,786.4269" fill="#FEFFDD" style="stroke:#181818;stroke-width:1;"/><text fill="#000000" font-family="sans-serif" font-size="13" lengthAdjust="spacing" textLength="271.832" x="3136.58" y="803.4938">En despliegue Render se usa PostgreSQL.</text><text fill="#000000" font-family="sans-serif" font-size="13" lengthAdjust="spacing" textLength="228.4331" x="3136.58" y="818.6266">SQLite queda para desarrollo local.</text></g><!--link User to Browser--><g class="link" data-entity-1="ent0002" data-entity-2="ent0004" data-link-type="dependency" data-source-line="52" id="lnk34"><path d="M185,135.7969 C185,163.3969 185,191.0069 185,211.0369" fill="none" id="User-to-Browser" style="stroke:#181818;stroke-width:1;"/><polygon fill="#181818" points="185,217.0369,189,208.0369,185,212.0369,181,208.0369,185,217.0369" style="stroke:#181818;stroke-width:1;"/></g><!--link Browser to App--><g class="link" data-entity-1="ent0004" data-entity-2="ent0008" data-link-type="dependency" data-source-line="53" id="lnk35"><path d="M251.59,244.9969 C417.13,266.0169 842.7078,320.0509 1047.7478,346.0909" fill="none" id="Browser-to-App" style="stroke:#181818;stroke-width:1;"/><polygon fill="#181818" points="1053.7,346.8469,1045.2757,341.7449,1048.7398,346.2169,1044.2678,349.6811,1053.7,346.8469" style="stroke:#181818;stroke-width:1;"/></g><!--link Browser to Bootstrap--><g class="link" data-entity-1="ent0004" data-entity-2="ent0005" data-link-type="dependency" data-source-line="54" id="lnk36"><path d="M185.85,254.1069 C186.99,277.8169 188.7314,313.8438 189.8714,337.5138" fill="none" id="Browser-to-Bootstrap" style="stroke:#181818;stroke-width:1;stroke-dasharray:7,7;"/><polygon fill="#181818" points="190.16,343.5069,193.7224,334.3249,189.9195,338.5127,185.7317,334.7097,190.16,343.5069" style="stroke:#181818;stroke-width:1;"/></g><!--link Browser to ChartJS--><g class="link" data-entity-1="ent0004" data-entity-2="ent0006" data-link-type="dependency" data-source-line="55" id="lnk37"><path d="M159.46,254.1369 C145.11,264.5669 127.28,278.4969 113,292.6869 C97.02,308.5569 84.8445,324.2095 74.5345,338.5995" fill="none" id="Browser-to-ChartJS" style="stroke:#181818;stroke-width:1;stroke-dasharray:7,7;"/><polygon fill="#181818" points="71.04,343.4769,79.5333,338.4905,73.9521,339.4124,73.0301,333.8312,71.04,343.4769" style="stroke:#181818;stroke-width:1;"/></g><!--link App to Templates--><g class="link" data-entity-1="ent0008" data-entity-2="ent0009" data-link-type="dependency" data-source-line="57" id="lnk38"><path d="M1053.59,376.2969 C1001.53,385.6269 939.94,401.2669 889,427.2769 C859.98,442.0969 836.7393,464.107 820.4493,481.677" fill="none" id="App-to-Templates" style="stroke:#181818;stroke-width:1;"/><polygon fill="#181818" points="816.37,486.0769,825.4223,482.1966,819.7695,482.4103,819.5558,476.7575,816.37,486.0769" style="stroke:#181818;stroke-width:1;"/></g><!--link App to Auth--><g class="link" data-entity-1="ent0008" data-entity-2="ent0011" data-link-type="dependency" data-source-line="58" id="lnk39"><path d="M1182.2,388.4669 C1199.31,413.8169 1222.0734,447.5336 1239.2434,472.9736" fill="none" id="App-to-Auth" style="stroke:#181818;stroke-width:1;"/><polygon fill="#181818" points="1242.6,477.9469,1240.8807,468.2493,1239.8029,473.8025,1234.2496,472.7247,1242.6,477.9469" style="stroke:#181818;stroke-width:1;"/></g><!--link App to Players--><g class="link" data-entity-1="ent0008" data-entity-2="ent0012" data-link-type="dependency" data-source-line="59" id="lnk40"><path d="M1266.94,388.7469 C1301.35,398.9369 1339.5,411.9269 1373,427.2769 C1398.68,439.0469 1420.4582,452.0029 1442.3582,466.5129" fill="none" id="App-to-Players" style="stroke:#181818;stroke-width:1;"/><polygon fill="#181818" points="1447.36,469.8269,1442.0667,461.5214,1443.1919,467.0652,1437.648,468.1905,1447.36,469.8269" style="stroke:#181818;stroke-width:1;"/></g><!--link App to Dashboard--><g class="link" data-entity-1="ent0008" data-entity-2="ent0013" data-link-type="dependency" data-source-line="60" id="lnk41"><path d="M1276.48,370.6269 C1390.58,379.8969 1559.13,398.0169 1617,427.2769 C1640.23,439.0269 1656.7749,456.0675 1670.3649,473.3775" fill="none" id="App-to-Dashboard" style="stroke:#181818;stroke-width:1;"/><polygon fill="#181818" points="1674.07,478.0969,1671.6585,468.5478,1670.9824,474.1641,1665.3661,473.488,1674.07,478.0969" style="stroke:#181818;stroke-width:1;"/></g><!--link App to Compare--><g class="link" data-entity-1="ent0008" data-entity-2="ent0014" data-link-type="dependency" data-source-line="61" id="lnk42"><path d="M1276.49,366.1669 C1426.28,371.9169 1683.49,387.4169 1768,427.2769 C1792.18,438.6869 1809.613,456.0549 1823.783,473.5449" fill="none" id="App-to-Compare" style="stroke:#181818;stroke-width:1;"/><polygon fill="#181818" points="1827.56,478.2069,1825.0024,468.6959,1824.4125,474.3219,1818.7865,473.7319,1827.56,478.2069" style="stroke:#181818;stroke-width:1;"/></g><!--link App to Staff--><g class="link" data-entity-1="ent0008" data-entity-2="ent0015" data-link-type="dependency" data-source-line="62" id="lnk43"><path d="M1067.17,388.7469 C1042.08,398.2569 1016.21,410.8669 995,427.2769 C977.52,440.8069 966.3626,456.3307 956.9326,472.7907" fill="none" id="App-to-Staff" style="stroke:#181818;stroke-width:1;"/><polygon fill="#181818" points="953.95,477.9969,961.8947,472.1761,956.4355,473.6584,954.9532,468.1992,953.95,477.9969" style="stroke:#181818;stroke-width:1;"/></g><!--link App to Settings--><g class="link" data-entity-1="ent0008" data-entity-2="ent0016" data-link-type="dependency" data-source-line="63" id="lnk44"><path d="M1147.98,388.4669 C1131.05,413.8169 1108.5436,447.5182 1091.5436,472.9582" fill="none" id="App-to-Settings" style="stroke:#181818;stroke-width:1;"/><polygon fill="#181818" points="1088.21,477.9469,1096.5362,472.6863,1090.988,473.7896,1089.8847,468.2414,1088.21,477.9469" style="stroke:#181818;stroke-width:1;"/></g><!--link Players to Runtime--><g class="link" data-entity-1="ent0012" data-entity-2="ent0022" data-link-type="dependency" data-source-line="65" id="lnk45"><path d="M1520.12,539.5569 C1539.1,565.1069 1561.1729,594.8298 1578.4529,618.0998" fill="none" id="Players-to-Runtime" style="stroke:#181818;stroke-width:1;"/><polygon fill="#181818" points="1582.03,622.9169,1579.8757,613.3065,1579.0491,618.9026,1573.453,618.076,1582.03,622.9169" style="stroke:#181818;stroke-width:1;"/></g><!--link Dashboard to Runtime--><g class="link" data-entity-1="ent0013" data-entity-2="ent0022" data-link-type="dependency" data-source-line="66" id="lnk46"><path d="M1675.73,531.2469 C1659.27,557.0669 1637.1871,591.7186 1620.6571,617.6286" fill="none" id="Dashboard-to-Runtime" style="stroke:#181818;stroke-width:1;"/><polygon fill="#181818" points="1617.43,622.6869,1625.6428,617.2508,1620.1192,618.4717,1618.8984,612.9481,1617.43,622.6869" style="stroke:#181818;stroke-width:1;"/></g><!--link Compare to Runtime--><g class="link" data-entity-1="ent0014" data-entity-2="ent0022" data-link-type="dependency" data-source-line="67" id="lnk47"><path d="M1820.86,531.4369 C1805.09,545.9169 1783.52,562.9069 1761,572.1669 C1732.86,583.7469 1721.28,568.9469 1693,580.1669 C1668.59,589.8569 1649.4215,603.7627 1632.1915,618.7927" fill="none" id="Compare-to-Runtime" style="stroke:#181818;stroke-width:1;"/><polygon fill="#181818" points="1627.67,622.7369,1637.0816,619.835,1631.4379,619.4501,1631.8228,613.8063,1627.67,622.7369" style="stroke:#181818;stroke-width:1;"/></g><!--link Runtime to PlayerNet--><g class="link" data-entity-1="ent0022" data-entity-2="ent0025" data-link-type="dependency" data-source-line="69" id="lnk48"><path d="M1648.14,676.0569 C1662.5,683.7569 1678.36,692.1769 1693,699.7669 C1722.12,714.8469 1733.26,712.4369 1759,732.7669 C1775.95,746.1469 1787.9648,760.071 1799.1348,775.191" fill="none" id="Runtime-to-PlayerNet" style="stroke:#181818;stroke-width:1;"/><polygon fill="#181818" points="1802.7,780.0169,1800.5695,770.4012,1799.729,775.9953,1794.135,775.1548,1802.7,780.0169" style="stroke:#181818;stroke-width:1;"/></g><!--link Runtime to Preprocessing--><g class="link" data-entity-1="ent0022" data-entity-2="ent0023" data-link-type="dependency" data-source-line="70" id="lnk49"><path d="M1606.45,676.0769 C1612.56,704.8169 1621.1708,745.2884 1627.2908,774.0384" fill="none" id="Runtime-to-Preprocessing" style="stroke:#181818;stroke-width:1;"/><polygon fill="#181818" points="1628.54,779.9069,1630.5785,770.2713,1627.499,775.0164,1622.7538,771.9369,1628.54,779.9069" style="stroke:#181818;stroke-width:1;"/></g><!--link Runtime to ModelPT--><g class="link" data-entity-1="ent0022" data-entity-2="ent0030" data-link-type="dependency" data-source-line="71" id="lnk50"><path d="M1639.15,676.1769 C1655.08,685.4769 1674.23,694.8869 1693,699.7669 C1746.35,713.6169 2134.43,700.0369 2189,707.7669 C2230.95,713.7069 2243.49,713.0469 2281,732.7669 C2307.49,746.6869 2328.826,765.6958 2345.086,782.1758" fill="none" id="Runtime-to-ModelPT" style="stroke:#181818;stroke-width:1;"/><polygon fill="#181818" points="2349.3,786.4469,2345.8263,777.2309,2345.7883,782.8877,2340.1316,782.8497,2349.3,786.4469" style="stroke:#181818;stroke-width:1;"/></g><!--link Runtime to Preprocessor--><g class="link" data-entity-1="ent0022" data-entity-2="ent0031" data-link-type="dependency" data-source-line="72" id="lnk51"><path d="M1639.14,676.1869 C1655.08,685.4969 1674.23,694.9069 1693,699.7669 C1723.07,707.5369 2221.03,705.3869 2252,707.7669 C2332.09,713.9069 2356.59,702.4869 2431,732.7669 C2461.83,745.3069 2487.4131,765.5578 2506.1531,782.6178" fill="none" id="Runtime-to-Preprocessor" style="stroke:#181818;stroke-width:1;"/><polygon fill="#181818" points="2510.59,786.6569,2506.6275,777.6403,2506.8926,783.291,2501.242,783.5561,2510.59,786.6569" style="stroke:#181818;stroke-width:1;"/></g><!--link Runtime to Calibrator--><g class="link" data-entity-1="ent0022" data-entity-2="ent0032" data-link-type="dependency" data-source-line="73" id="lnk52"><path d="M1639.14,676.2169 C1655.07,685.5269 1674.22,694.9269 1693,699.7669 C1728.62,708.9369 2318.27,705.8769 2355,707.7669 C2477.56,714.0669 2512.9,696.0369 2630,732.7669 C2668.3,744.7769 2702.8362,766.0081 2727.6362,783.2781" fill="none" id="Runtime-to-Calibrator" style="stroke:#181818;stroke-width:1;"/><polygon fill="#181818" points="2732.56,786.7069,2727.4602,778.2812,2728.4569,783.8496,2722.8885,784.8462,2732.56,786.7069" style="stroke:#181818;stroke-width:1;"/></g><!--link Train to Metadata--><g class="link" data-entity-1="ent0024" data-entity-2="ent0033" data-link-type="dependency" data-source-line="74" id="lnk53"><path d="M1907.71,651.8869 C2138.25,656.1769 2706.13,672.6969 2886,732.7669 C2920.97,744.4369 2951.2277,765.4376 2973.0377,782.8176" fill="none" id="Train-to-Metadata" style="stroke:#181818;stroke-width:1;"/><polygon fill="#181818" points="2977.73,786.5569,2973.1843,777.8198,2973.8197,783.4408,2968.1987,784.0762,2977.73,786.5569" style="stroke:#181818;stroke-width:1;"/></g><!--link Auth to DBUtils--><g class="link" data-entity-1="ent0011" data-entity-2="ent0019" data-link-type="dependency" data-source-line="76" id="lnk54"><path d="M1217.4,531.5069 C1196.8,542.8769 1171.32,555.3969 1147,563.1669 C996.96,611.0969 821.9916,631.847 704.3616,641.087" fill="none" id="Auth-to-DBUtils" style="stroke:#181818;stroke-width:1;"/><polygon fill="#181818" points="698.38,641.5569,707.6656,644.8398,703.3646,641.1653,707.0391,636.8644,698.38,641.5569" style="stroke:#181818;stroke-width:1;"/></g><!--link Players to DBUtils--><g class="link" data-entity-1="ent0012" data-entity-2="ent0019" data-link-type="dependency" data-source-line="77" id="lnk55"><path d="M1433.54,539.5369 C1414.62,548.5969 1393.4,557.4469 1373,563.1669 C1140.57,628.3169 863.2485,644.2225 704.3785,647.7825" fill="none" id="Players-to-DBUtils" style="stroke:#181818;stroke-width:1;"/><polygon fill="#181818" points="698.38,647.9169,707.4674,651.7142,703.3787,647.8049,707.2881,643.7163,698.38,647.9169" style="stroke:#181818;stroke-width:1;"/></g><!--link Dashboard to DBUtils--><g class="link" data-entity-1="ent0013" data-entity-2="ent0019" data-link-type="dependency" data-source-line="78" id="lnk56"><path d="M1666.2,531.4469 C1652.7,543.2469 1635.21,556.1569 1617,563.1669 C1574.75,579.4469 971.1463,621.7718 704.4263,639.8218" fill="none" id="Dashboard-to-DBUtils" style="stroke:#181818;stroke-width:1;"/><polygon fill="#181818" points="698.44,640.2269,707.6895,643.6101,703.4286,639.8893,707.1494,635.6283,698.44,640.2269" style="stroke:#181818;stroke-width:1;"/></g><!--link Compare to DBUtils--><g class="link" data-entity-1="ent0014" data-entity-2="ent0019" data-link-type="dependency" data-source-line="79" id="lnk57"><path d="M1819.4,531.2669 C1805.28,543.1869 1786.95,556.2369 1768,563.1669 C1714.24,582.8169 1568.1,576.1969 1511,580.1669 C1219.65,600.4369 883.3933,625.3594 704.3633,638.7494" fill="none" id="Compare-to-DBUtils" style="stroke:#181818;stroke-width:1;"/><polygon fill="#181818" points="698.38,639.1969,707.6533,642.5145,703.3661,638.824,707.0566,634.5368,698.38,639.1969" style="stroke:#181818;stroke-width:1;"/></g><!--link Staff to DBUtils--><g class="link" data-entity-1="ent0015" data-entity-2="ent0019" data-link-type="dependency" data-source-line="80" id="lnk58"><path d="M928.57,531.2369 C921.86,542.5469 912.56,555.1069 901,563.1669 C841.51,604.6769 769.0767,624.9906 704.1067,635.9306" fill="none" id="Staff-to-DBUtils" style="stroke:#181818;stroke-width:1;"/><polygon fill="#181818" points="698.19,636.9269,707.7293,639.3769,703.1206,636.0966,706.4009,631.488,698.19,636.9269" style="stroke:#181818;stroke-width:1;"/></g><!--link Settings to DBUtils--><g class="link" data-entity-1="ent0016" data-entity-2="ent0019" data-link-type="dependency" data-source-line="81" id="lnk59"><path d="M1043.36,531.3969 C1029.73,542.7469 1012.49,555.2769 995,563.1669 C900.56,605.7769 790.5439,626.5245 704.4139,637.2645" fill="none" id="Settings-to-DBUtils" style="stroke:#181818;stroke-width:1;"/><polygon fill="#181818" points="698.46,638.0069,707.8858,640.8625,703.4216,637.3882,706.8959,632.924,698.46,638.0069" style="stroke:#181818;stroke-width:1;"/></g><!--link Sync to DBUtils--><g class="link" data-entity-1="ent0020" data-entity-2="ent0019" data-link-type="dependency" data-source-line="82" id="lnk60"><path d="M451,531.2469 C478.31,557.0669 515.9597,592.6552 543.3697,618.5652" fill="none" id="Sync-to-DBUtils" style="stroke:#181818;stroke-width:1;"/><polygon fill="#181818" points="547.73,622.6869,543.9374,613.5975,544.0964,619.2522,538.4418,619.4112,547.73,622.6869" style="stroke:#181818;stroke-width:1;"/></g><!--link DBUtils to SQLite--><g class="link" data-entity-1="ent0019" data-entity-2="ent0027" data-link-type="dependency" data-source-line="84" id="lnk61"><path d="M698.35,658.1669 C877.33,669.0669 1219.52,688.8769 1511,699.7669 C1672.26,705.7869 1712.94,697.7869 1874,707.7669 C1983.24,714.5269 2018.79,688.7469 2119,732.7669 C2140.79,742.3369 2156.7008,755.5828 2171.5208,771.0628" fill="none" id="DBUtils-to-SQLite" style="stroke:#181818;stroke-width:1;"/><polygon fill="#181818" points="2175.67,775.3969,2172.3355,766.1297,2172.2123,771.7852,2166.5568,771.662,2175.67,775.3969" style="stroke:#181818;stroke-width:1;"/><text fill="#000000" font-family="sans-serif" font-size="13" lengthAdjust="spacing" textLength="30.291" x="2097" y="720.8338">local</text></g><!--link DBUtils to PostgreSQL--><g class="link" data-entity-1="ent0019" data-entity-2="ent0028" data-link-type="dependency" data-source-line="85" id="lnk62"><path d="M698.39,657.2169 C1025.86,675.2469 1893.95,723.7369 1923,732.7669 C1952.5,741.9269 1977.3392,756.2882 1999.9692,771.9782" fill="none" id="DBUtils-to-PostgreSQL" style="stroke:#181818;stroke-width:1;"/><polygon fill="#181818" points="2004.9,775.3969,1999.7829,766.9817,2000.791,772.548,1995.2247,773.5561,2004.9,775.3969" style="stroke:#181818;stroke-width:1;"/><text fill="#000000" font-family="sans-serif" font-size="13" lengthAdjust="spacing" textLength="46.8647" x="1819" y="720.8338">Render</text></g><!--link Cache to Dashboard--><g class="link" data-entity-1="ent0018" data-entity-2="ent0013" data-link-type="dependency" data-source-line="87" id="lnk63"><path d="M642.22,478.3469 C658.81,455.8869 686.26,425.7069 719.5,415.7069 C766.32,401.6269 1552.68,401.6269 1599.5,415.7069 C1632.37,425.5869 1655.6742,450.9205 1671.8042,473.4205" fill="none" id="Cache-to-Dashboard" style="stroke:#181818;stroke-width:1;stroke-dasharray:7,7;"/><polygon fill="#181818" points="1675.3,478.2969,1673.3072,468.6517,1672.3868,474.2332,1666.8053,473.3128,1675.3,478.2969" style="stroke:#181818;stroke-width:1;"/></g><!--link Cache to Compare--><g class="link" data-entity-1="ent0018" data-entity-2="ent0014" data-link-type="dependency" data-source-line="88" id="lnk64"><path d="M642.22,478.3469 C658.81,455.8869 686.26,425.7069 719.5,415.7069 C746.93,407.4569 1723.07,407.4569 1750.5,415.7069 C1783.71,425.6969 1807.7218,450.743 1824.5818,473.143" fill="none" id="Cache-to-Compare" style="stroke:#181818;stroke-width:1;stroke-dasharray:7,7;"/><polygon fill="#181818" points="1828.19,477.9369,1825.9736,468.3407,1825.1832,473.942,1819.5818,473.1516,1828.19,477.9369" style="stroke:#181818;stroke-width:1;"/></g><!--link Cache to Players--><g class="link" data-entity-1="ent0018" data-entity-2="ent0012" data-link-type="dependency" data-source-line="89" id="lnk65"><path d="M642.22,478.3469 C658.81,455.8869 686.26,425.7069 719.5,415.7069 C753.34,405.5269 1321.58,405.8069 1355.5,415.7069 C1391.9,426.3269 1423.095,446.0206 1449.375,466.1306" fill="none" id="Cache-to-Players" style="stroke:#181818;stroke-width:1;stroke-dasharray:7,7;"/><polygon fill="#181818" points="1454.14,469.7769,1449.4234,461.1309,1450.1692,466.7383,1444.5617,467.4841,1454.14,469.7769" style="stroke:#181818;stroke-width:1;"/></g><!--link PostgreSQL to GMN66--><g class="link" data-entity-1="ent0028" data-entity-2="ent0067" data-link-type="association" data-source-line="92" id="lnk68"><path d="M2065.42,775.3369 C2082.02,754.1469 2107.09,727.9369 2136.5,716.2669 C2185.97,696.6169 3042.68,704.1469 3094.5,716.2669 C3151.81,729.6669 3211.77,763.8269 3246.69,786.0769" fill="none" id="PostgreSQL-GMN66" style="stroke:#181818;stroke-width:1;stroke-dasharray:7,7;"/></g><?plantuml-src RLLBRnit4BxpLn0wspBGOmy1R3a1QjY1Qid8eGg4sTtHYZQNt0ovRfKY_pt3rpxIdfRyviLlNkkLroZl5RG47SW6PMsxtXeq7fsybhVqRL0UQpyGI6rRLOFSRtUr7RmohH3kJPaUs7Qos_aBkoIs0TDg509gRqckNjm0fEp1H6jvmr634ejkv6tJAREIuEIBGnAYX_eDMfIhZLRXAIlvhv3ohy_mZYqqRF85gwz1_Oxity62XNVMUkS9UhdPxPAm846yEGFvzQkBadXvs8aVir2tlMPsjR96VjBWtd9CwFjrVpcOFuog5MZrFQbScB0vgPRp4kxHwsqV8pqeymg_oJrslGPEOvIDDy4gOymxFM1FodZ7INWUFBWKDSGT_3a6VkIi6nRpD-Nj6Ll5j6oAoMh9WDrVa5oqUHXYcj1ToPEgpt0bmPEg1c_TrS6Wyz2m2wRB2ZrXe-gHn3QvIJuRSEVA0ZNHwnOCQjcYGG8TbU-BFAc77W32gBo9v_IAbFCaJ9hyWjCfwkt2AIh4KnQZ3_tbigTV4xtBObR-iSZd3kcTosIdDBg8eBlXqfxpoy99AdFTOMVfaXuNiCovEd9pwp4s_fFgtQasFO47Gwjt1GOIiVkxbw2VurrCVNHdIrvpXXD3PMgofdGEprW3N8Z4XDN_m-B9DeEsykbnPD7f6ngCLrrXG2t8mE64X8RxCZfxJYgv7OWxop9pnvcALdi2uqwMkl4T9mGUx5oVxTmW-U3PKUROsGPrzF3HU0u7NPX9cplbC_hKu44tcOq2RfdBtb9zddKMmv7mVFIst72ShSWaSUOCGGKkbFJFHrv01tEF3eYiviHeMuEEso895_fRwtnBo9A3UKRJ837JpaRrIRQSVF9u2blAZJddzQ0295UPlOyEdi9bkryeJ8csj7wrbLRLQfbFIxyOs0egfPM_79c8geZROM6w6T65OIm75-VO8GymC-PrPjFQVCf8u1LMgBo-_Z0kn_oDMDXHvRvUVvZjo3bQzgDWzMWshQ-2nCLJBcLfbFkq5mfIfh_Sqx2FjpBG8dkAQEddqTi2pHuNcCY7sQD2lotGHPlF9QMu_w_DjPWBPYMAdPyyb2g8a9sKYRmSvhmAjkHLq3clWiLiBP6SiIN8ssG1Y7n8IOx38dzFyxCGJOF1uZGrGgGz6TfXAkU4bO9EI6a2OIo78TMUlRId-T1z35l7yNyMsm5p7Cb3EpYOgQr5Vkct0HkGuIyIp1RJlnPiB4EWdm00?></g></svg>