<svg xmlns="http://www.w3.org/2000/svg" xmlns:xlink="http://www.w3.org/1999/xlink" contentStyleType="text/css" data-diagram-type="DESCRIPTION" height="1098px" preserveAspectRatio="none" style="width:1852px;height:1098px;background:#FFFFFF;" version="1.1" viewBox="0 0 1852 1098" width="1852px" zoomAndPan="magnify"><?plantuml 1.2026.4beta2?><defs/><g><g class="title" data-source-line="1"><text fill="#000000" font-family="sans-serif" font-size="14" font-weight="700" lengthAdjust="spacing" textLength="382.6758" x="731.5762" y="22.9951">Diagrama de despliegue - TPScouting en Render</text></g><!--cluster Usuario--><g class="cluster" data-qualified-name="Usuario" data-source-line="3" id="ent0002"><polygon fill="none" points="1020.8282,61.2969,1030.8282,51.2969,1194.8282,51.2969,1194.8282,136.5969,1184.8282,146.5969,1020.8282,146.5969,1020.8282,61.2969" style="stroke:#181818;stroke-width:1;"/><line style="stroke:#181818;stroke-width:1;" x1="1184.8282" x2="1194.8282" y1="61.2969" y2="51.2969"/><line style="stroke:#181818;stroke-width:1;" x1="1020.8282" x2="1184.8282" y1="61.2969" y2="61.2969"/><line style="stroke:#181818;stroke-width:1;" x1="1184.8282" x2="1184.8282" y1="61.2969" y2="146.5969"/><text fill="#000000" font-family="sans-serif" font-size="14" font-weight="700" lengthAdjust="spacing" textLength="60.4365" x="1073.6099" y="77.292">Usuario</text></g><!--cluster Render--><g class="cluster" data-qualified-name="Render" data-source-line="7" id="ent0004"><path d="M71.7354,213.2297 C104.4449,162.28 138.2741,173.0446 170.4405,213.8142 C195.3157,164.966 240.0194,164.6199 267.0893,211.6007 C298.5164,169.5038 341.4203,161.9716 372.4895,212.0101 C394.7501,174.5385 436.3983,166.9746 460.0697,210.4844 C489.0033,166.3619 532.0035,156.1065 562.977,208.305 C586.3754,155.9078 631.7137,164.0245 659.6733,203.5045 C689.6014,153.581 733.444,154.8371 758.4775,208.1872 C784.2925,154.9957 833.3988,159.1822 864.809,201.9897 C896.5942,155.8629 932.5191,165.1467 954.5201,211.4828 C979.2435,170.6791 1025.2856,170.6839 1051.0531,210.2284 C1079.912,152.9071 1116.2911,163.0428 1151.6284,203.5694 C1189.9922,164.1519 1223.9998,172.7195 1249.1514,218.664 C1276.6873,171.1495 1315.378,169.332 1341.7449,219.7691 C1367.2275,172.6883 1406.86,166.0135 1440.8282,210.5969 C1447.5122,209.707 1450.0923,213.6786 1448.8613,219.7417 C1498.9427,243.2846 1501.6966,290.4811 1451.2632,316.5189 C1500.0052,347.8255 1497.8772,392.5046 1450.0986,422.7531 C1502.7564,455.0952 1494.2273,492.4288 1447.2131,521.8693 C1502.7014,539.023 1504.23,586.4578 1460.5514,617.4502 C1516.5141,648.6264 1506.2276,691.5451 1460.0437,722.2264 C1497.469,752.8121 1502.0676,782.2117 1455.2306,808.0732 C1509.4918,849.1826 1504.0838,887.0069 1447.5728,920.5763 C1491.6292,957.4313 1482.5067,990.1716 1433.8282,1013.2769 C1443.7761,1013.1168 1446.7082,1019.0975 1441.9131,1027.3858 C1411.3867,1071.2346 1384.5753,1064.9473 1353.7313,1027.7312 C1319.5375,1075.8512 1275.7076,1066.9406 1254.1663,1015.1256 C1221.8888,1068.867 1187.9664,1075.7603 1143.2277,1028.8619 C1106.558,1064.0034 1073.9518,1069.6762 1048.284,1016.9711 C1028.7974,1072.9037 984.5321,1073.2537 951.7515,1029.8958 C920.2163,1070.159 884.8765,1076.9273 858.6891,1024.5251 C836.7768,1070.7388 792.1082,1068.6202 765.3392,1029.8605 C732.1541,1079.0666 700.12,1082.67 665.0334,1031.7658 C629.5586,1079.6014 593.0922,1074.6899 568.7837,1021.1628 C539.9831,1076.0372 499.704,1072.7098 467.4923,1024.5151 C433.0574,1079.8405 398.3333,1066.3641 364.6021,1023.7755 C338.3759,1068.8074 309.0034,1062.4951 279.4179,1027.3442 C239.5477,1083.7156 204.9346,1080.3205 170.5024,1022.1723 C134.3579,1066.0342 85.2075,1055.6589 62.8282,1006.2769 C64.6532,1007.4423 64.7146,1008.7228 63.1013,1010.1319 C25.5838,974.1683 18.9302,938.7822 74.0348,913.2741 C25.0807,893.0113 21.7554,857.138 58.7624,822.4246 C20.2042,790.1803 14.1957,749.4097 67.2741,725.1868 C20.1165,696.7903 11.0131,649.8175 67.4323,621.5792 C6,589.5894 14.2689,549.4773 60.1061,510.4178 C13.9291,484.0459 26.1518,441.2107 65.8581,420.3218 C16.6128,384.4114 23.1953,342.5726 71.0126,311.2492 C16.8201,279.7856 14.7157,236.2632 69.8282,203.5969 C74.4219,205.4907 76.3511,209.5124 71.7354,213.2297" fill="none" style="stroke:#181818;stroke-width:1;"/><text fill="#000000" font-family="sans-serif" font-size="14" font-weight="700" lengthAdjust="spacing" textLength="56.6631" x="723.4966" y="221.592">Render</text></g><!--cluster RenderWeb--><g class="cluster" data-qualified-name="Render.RenderWeb" data-source-line="8" id="ent0005"><polygon fill="none" points="86.8282,256.5969,96.8282,246.5969,1210.8282,246.5969,1210.8282,979.2769,1200.8282,989.2769,86.8282,989.2769,86.8282,256.5969" style="stroke:#181818;stroke-width:1;"/><line style="stroke:#181818;stroke-width:1;" x1="1200.8282" x2="1210.8282" y1="256.5969" y2="246.5969"/><line style="stroke:#181818;stroke-width:1;" x1="86.8282" x2="1200.8282" y1="256.5969" y2="256.5969"/><line style="stroke:#181818;stroke-width:1;" x1="1200.8282" x2="1200.8282" y1="256.5969" y2="989.2769"/><text fill="#000000" font-family="sans-serif" font-size="14" font-weight="700" lengthAdjust="spacing" textLength="98.0342" x="595.8111" y="272.592">Web Service</text><text fill="#000000" font-family="sans-serif" font-size="14" font-weight="700" lengthAdjust="spacing" textLength="297.001" x="496.3277" y="288.8889">https://tpscouting-mvp.onrender.com</text></g><!--cluster Gunicorn--><g class="cluster" data-qualified-name="Render.RenderWeb.Gunicorn" data-source-line="9" id="ent0006"><polygon fill="none" points="126.8282,429.6069,136.8282,419.6069,1170.8282,419.6069,1170.8282,939.2769,1160.8282,949.2769,126.8282,949.2769,126.8282,429.6069" style="stroke:#181818;stroke-width:1;"/><line style="stroke:#181818;stroke-width:1;" x1="1160.8282" x2="1170.8282" y1="429.6069" y2="419.6069"/><line style="stroke:#181818;stroke-width:1;" x1="126.8282" x2="1160.8282" y1="429.6069" y2="429.6069"/><line style="stroke:#181818;stroke-width:1;" x1="1160.8282" x2="1160.8282" y1="429.6069" y2="949.2769"/><text fill="#000000" font-family="sans-serif" font-size="14" font-weight="700" lengthAdjust="spacing" textLength="71.0117" x="609.3223" y="445.602">Gunicorn</text><text fill="#000000" font-family="sans-serif" font-size="14" font-weight="700" lengthAdjust="spacing" text-decoration="line-through" textLength="78.1143" x="565.5962" y="461.8989">workers 1</text><text fill="#000000" font-family="sans-serif" font-size="14" font-weight="700" lengthAdjust="spacing" textLength="75.4756" x="648.5845" y="461.8989">threads 2</text></g><!--cluster FlaskApp--><g class="cluster" data-qualified-name="Render.RenderWeb.Gunicorn.FlaskApp" data-source-line="10" id="ent0007"><polygon fill="none" points="166.8282,565.3269,176.8282,555.3269,1130.8282,555.3269,1130.8282,899.2769,1120.8282,909.2769,166.8282,909.2769,166.8282,565.3269" style="stroke:#181818;stroke-width:1;"/><line style="stroke:#181818;stroke-width:1;" x1="1120.8282" x2="1130.8282" y1="565.3269" y2="555.3269"/><line style="stroke:#181818;stroke-width:1;" x1="166.8282" x2="1120.8282" y1="565.3269" y2="565.3269"/><line style="stroke:#181818;stroke-width:1;" x1="1120.8282" x2="1120.8282" y1="565.3269" y2="909.2769"/><text fill="#000000" font-family="sans-serif" font-size="14" font-weight="700" lengthAdjust="spacing" textLength="77.2051" x="606.2256" y="581.322">Flask App</text><text fill="#000000" font-family="sans-serif" font-size="14" font-weight="700" lengthAdjust="spacing" textLength="89.2568" x="600.1997" y="597.6189">TPScouting</text></g><!--cluster GitHub--><g class="cluster" data-qualified-name="GitHub" data-source-line="26" id="ent0017"><polygon fill="none" points="1480.8282,53.2969,1490.8282,43.2969,1827.8282,43.2969,1827.8282,328.6069,1817.8282,338.6069,1480.8282,338.6069,1480.8282,53.2969" style="stroke:#181818;stroke-width:1;"/><line style="stroke:#181818;stroke-width:1;" x1="1817.8282" x2="1827.8282" y1="53.2969" y2="43.2969"/><line style="stroke:#181818;stroke-width:1;" x1="1480.8282" x2="1817.8282" y1="53.2969" y2="53.2969"/><line style="stroke:#181818;stroke-width:1;" x1="1817.8282" x2="1817.8282" y1="53.2969" y2="338.6069"/><text fill="#000000" font-family="sans-serif" font-size="14" font-weight="700" lengthAdjust="spacing" textLength="150.2402" x="1575.208" y="69.292">Repositorio GitHub</text></g><!--entity Browser--><g class="entity" data-qualified-name="Usuario.Browser" data-source-line="4" id="ent0003"><rect fill="#F1F1F1" height="39.2969" rx="2.5" ry="2.5" style="stroke:#181818;stroke-width:0.5;" width="142.417" x="1036.6182" y="91.2969"/><polygon fill="#F1F1F1" points="1162.0351,96.2969,1162.0351,110.2969,1174.0351,110.2969,1174.0351,102.2969,1168.0351,96.2969,1162.0351,96.2969" style="stroke:#181818;stroke-width:0.5;"/><line style="stroke:#181818;stroke-width:0.5;" x1="1168.0351" x2="1168.0351" y1="96.2969" y2="102.2969"/><line style="stroke:#181818;stroke-width:0.5;" x1="1174.0351" x2="1168.0351" y1="102.2969" y2="102.2969"/><text fill="#000000" font-family="sans-serif" font-size="14" lengthAdjust="spacing" textLength="112.417" x="1046.6182" y="117.292">Navegador Web</text></g><!--entity RenderDB--><g class="entity" data-qualified-name="Render.RenderDB" data-source-line="23" id="ent0016"><path d="M1235.0682,718.3869 C1235.0682,708.3869 1333.8328,708.3869 1333.8328,708.3869 C1333.8328,708.3869 1432.5974,708.3869 1432.5974,718.3869 L1432.5974,759.9806 C1432.5974,769.9806 1333.8328,769.9806 1333.8328,769.9806 C1333.8328,769.9806 1235.0682,769.9806 1235.0682,759.9806 L1235.0682,718.3869" fill="#F1F1F1" style="stroke:#181818;stroke-width:0.5;"/><path d="M1235.0682,718.3869 C1235.0682,728.3869 1333.8328,728.3869 1333.8328,728.3869 C1333.8328,728.3869 1432.5974,728.3869 1432.5974,718.3869" fill="none" style="stroke:#181818;stroke-width:0.5;"/><text fill="#000000" font-family="sans-serif" font-size="14" lengthAdjust="spacing" textLength="177.5293" x="1245.0682" y="745.382">PostgreSQL administrado</text><text fill="#000000" font-family="sans-serif" font-size="14" lengthAdjust="spacing" textLength="78.2441" x="1245.0682" y="761.6789">Base demo</text></g><!--entity AppPy--><g class="entity" data-qualified-name="Render.RenderWeb.Gunicorn.FlaskApp.AppPy" data-source-line="11" id="ent0008"><rect fill="#F1F1F1" height="39.2969" rx="2.5" ry="2.5" style="stroke:#181818;stroke-width:0.5;" width="77.9746" x="190.8382" y="719.5369"/><polygon fill="#F1F1F1" points="251.8128,724.5369,251.8128,738.5369,263.8128,738.5369,263.8128,730.5369,257.8128,724.5369,251.8128,724.5369" style="stroke:#181818;stroke-width:0.5;"/><line style="stroke:#181818;stroke-width:0.5;" x1="257.8128" x2="257.8128" y1="724.5369" y2="730.5369"/><line style="stroke:#181818;stroke-width:0.5;" x1="263.8128" x2="257.8128" y1="730.5369" y2="730.5369"/><text fill="#000000" font-family="sans-serif" font-size="14" lengthAdjust="spacing" textLength="47.9746" x="200.8382" y="745.532">app.py</text></g><!--entity Routes--><g class="entity" data-qualified-name="Render.RenderWeb.Gunicorn.FlaskApp.Routes" data-source-line="12" id="ent0009"><path d="M306.6782,712.0369 L347.6782,712.0369 A3.75,3.75 0 0 1 350.1782,714.5369 L357.1782,733.0369 L380.9858,733.0369 A2.5,2.5 0 0 1 383.4858,735.5369 L383.4858,763.8338 A2.5,2.5 0 0 1 380.9858,766.3338 L306.6782,766.3338 A2.5,2.5 0 0 1 304.1782,763.8338 L304.1782,714.5369 A2.5,2.5 0 0 1 306.6782,712.0369" fill="#F1F1F1" style="stroke:#181818;stroke-width:0.5;"/><line style="stroke:#181818;stroke-width:0.5;" x1="304.1782" x2="357.1782" y1="733.0369" y2="733.0369"/><text fill="#000000" font-family="sans-serif" font-size="14" lengthAdjust="spacing" textLength="49.3076" x="314.1782" y="753.032">routes/</text></g><!--entity Templates--><g class="entity" data-qualified-name="Render.RenderWeb.Gunicorn.FlaskApp.Templates" data-source-line="13" id="ent0010"><path d="M420.7282,712.0369 L461.7282,712.0369 A3.75,3.75 0 0 1 464.2282,714.5369 L471.2282,733.0369 L520.9371,733.0369 A2.5,2.5 0 0 1 523.4371,735.5369 L523.4371,763.8338 A2.5,2.5 0 0 1 520.9371,766.3338 L420.7282,766.3338 A2.5,2.5 0 0 1 418.2282,763.8338 L418.2282,714.5369 A2.5,2.5 0 0 1 420.7282,712.0369" fill="#F1F1F1" style="stroke:#181818;stroke-width:0.5;"/><line style="stroke:#181818;stroke-width:0.5;" x1="418.2282" x2="471.2282" y1="733.0369" y2="733.0369"/><text fill="#000000" font-family="sans-serif" font-size="14" lengthAdjust="spacing" textLength="75.209" x="428.2282" y="753.032">templates/</text></g><!--entity Static--><g class="entity" data-qualified-name="Render.RenderWeb.Gunicorn.FlaskApp.Static" data-source-line="14" id="ent0011"><path d="M195.7482,830.9769 L236.7482,830.9769 A3.75,3.75 0 0 1 239.2482,833.4769 L246.2482,851.9769 L263.9034,851.9769 A2.5,2.5 0 0 1 266.4034,854.4769 L266.4034,882.7738 A2.5,2.5 0 0 1 263.9034,885.2738 L195.7482,885.2738 A2.5,2.5 0 0 1 193.2482,882.7738 L193.2482,833.4769 A2.5,2.5 0 0 1 195.7482,830.9769" fill="#F1F1F1" style="stroke:#181818;stroke-width:0.5;"/><line style="stroke:#181818;stroke-width:0.5;" x1="193.2482" x2="246.2482" y1="851.9769" y2="851.9769"/><text fill="#000000" font-family="sans-serif" font-size="14" lengthAdjust="spacing" textLength="43.1553" x="203.2482" y="871.972">static/</text></g><!--entity MLRuntime--><g class="entity" data-qualified-name="Render.RenderWeb.Gunicorn.FlaskApp.MLRuntime" data-source-line="15" id="ent0012"><path d="M304.3282,830.9769 L345.3282,830.9769 A3.75,3.75 0 0 1 347.8282,833.4769 L354.8282,851.9769 L369.3282,851.9769 A2.5,2.5 0 0 1 371.8282,854.4769 L371.8282,882.7738 A2.5,2.5 0 0 1 369.3282,885.2738 L304.3282,885.2738 A2.5,2.5 0 0 1 301.8282,882.7738 L301.8282,833.4769 A2.5,2.5 0 0 1 304.3282,830.9769" fill="#F1F1F1" style="stroke:#181818;stroke-width:0.5;"/><line style="stroke:#181818;stroke-width:0.5;" x1="301.8282" x2="354.8282" y1="851.9769" y2="851.9769"/><text fill="#000000" font-family="sans-serif" font-size="14" lengthAdjust="spacing" textLength="22.2441" x="311.8282" y="871.972">ml/</text></g><!--entity ModelPT--><g class="entity" data-qualified-name="Render.RenderWeb.Gunicorn.FlaskApp.ModelPT" data-source-line="16" id="ent0013"><rect fill="#F1F1F1" height="39.2969" rx="2.5" ry="2.5" style="stroke:#181818;stroke-width:0.5;" width="92.4189" x="558.6182" y="719.5369"/><polygon fill="#F1F1F1" points="634.0371,724.5369,634.0371,738.5369,646.0371,738.5369,646.0371,730.5369,640.0371,724.5369,634.0371,724.5369" style="stroke:#181818;stroke-width:0.5;"/><line style="stroke:#181818;stroke-width:0.5;" x1="640.0371" x2="640.0371" y1="724.5369" y2="730.5369"/><line style="stroke:#181818;stroke-width:0.5;" x1="646.0371" x2="640.0371" y1="730.5369" y2="730.5369"/><text fill="#000000" font-family="sans-serif" font-size="14" lengthAdjust="spacing" textLength="62.4189" x="568.6182" y="745.532">model.pt</text></g><!--entity Preprocessor--><g class="entity" data-qualified-name="Render.RenderWeb.Gunicorn.FlaskApp.Preprocessor" data-source-line="17" id="ent0014"><rect fill="#F1F1F1" height="39.2969" rx="2.5" ry="2.5" style="stroke:#181818;stroke-width:0.5;" width="164.1416" x="685.7582" y="719.5369"/><polygon fill="#F1F1F1" points="832.8998,724.5369,832.8998,738.5369,844.8998,738.5369,844.8998,730.5369,838.8998,724.5369,832.8998,724.5369" style="stroke:#181818;stroke-width:0.5;"/><line style="stroke:#181818;stroke-width:0.5;" x1="838.8998" x2="838.8998" y1="724.5369" y2="730.5369"/><line style="stroke:#181818;stroke-width:0.5;" x1="844.8998" x2="838.8998" y1="730.5369" y2="730.5369"/><text fill="#000000" font-family="sans-serif" font-size="14" lengthAdjust="spacing" textLength="134.1416" x="695.7582" y="745.532">preprocessor.joblib</text></g><!--entity Calibrator--><g class="entity" data-qualified-name="Render.RenderWeb.Gunicorn.FlaskApp.Calibrator" data-source-line="18" id="ent0015"><rect fill="#F1F1F1" height="39.2969" rx="2.5" ry="2.5" style="stroke:#181818;stroke-width:0.5;" width="221.5498" x="885.0582" y="719.5369"/><polygon fill="#F1F1F1" points="1089.608,724.5369,1089.608,738.5369,1101.608,738.5369,1101.608,730.5369,1095.608,724.5369,1089.608,724.5369" style="stroke:#181818;stroke-width:0.5;"/><line style="stroke:#181818;stroke-width:0.5;" x1="1095.608" x2="1095.608" y1="724.5369" y2="730.5369"/><line style="stroke:#181818;stroke-width:0.5;" x1="1101.608" x2="1095.608" y1="730.5369" y2="730.5369"/><text fill="#000000" font-family="sans-serif" font-size="14" lengthAdjust="spacing" textLength="191.5498" x="895.0582" y="745.532">probability_calibrator.joblib</text></g><!--entity Code--><g class="entity" data-qualified-name="GitHub.Code" data-source-line="27" id="ent0018"><rect fill="#F1F1F1" height="39.2969" rx="2.5" ry="2.5" style="stroke:#181818;stroke-width:0.5;" width="128.4102" x="1524.6182" y="91.2969"/><polygon fill="#F1F1F1" points="1636.0283,96.2969,1636.0283,110.2969,1648.0283,110.2969,1648.0283,102.2969,1642.0283,96.2969,1636.0283,96.2969" style="stroke:#181818;stroke-width:0.5;"/><line style="stroke:#181818;stroke-width:0.5;" x1="1642.0283" x2="1642.0283" y1="96.2969" y2="102.2969"/><line style="stroke:#181818;stroke-width:0.5;" x1="1648.0283" x2="1642.0283" y1="102.2969" y2="102.2969"/><text fill="#000000" font-family="sans-serif" font-size="14" lengthAdjust="spacing" textLength="98.4102" x="1534.6182" y="117.292">Codigo fuente</text></g><!--entity RenderYaml--><g class="entity" data-qualified-name="GitHub.RenderYaml" data-source-line="28" id="ent0019"><rect fill="#F1F1F1" height="39.2969" rx="2.5" ry="2.5" style="stroke:#181818;stroke-width:0.5;" width="115.3398" x="1688.1582" y="91.2969"/><polygon fill="#F1F1F1" points="1786.498,96.2969,1786.498,110.2969,1798.498,110.2969,1798.498,102.2969,1792.498,96.2969,1786.498,96.2969" style="stroke:#181818;stroke-width:0.5;"/><line style="stroke:#181818;stroke-width:0.5;" x1="1792.498" x2="1792.498" y1="96.2969" y2="102.2969"/><line style="stroke:#181818;stroke-width:0.5;" x1="1798.498" x2="1792.498" y1="102.2969" y2="102.2969"/><text fill="#000000" font-family="sans-serif" font-size="14" lengthAdjust="spacing" textLength="85.3398" x="1698.1582" y="117.292">render.yaml</text></g><!--entity Requirements--><g class="entity" data-qualified-name="GitHub.Requirements" data-source-line="29" id="ent0020"><rect fill="#F1F1F1" height="39.2969" rx="2.5" ry="2.5" style="stroke:#181818;stroke-width:0.5;" width="148.0088" x="1524.8282" y="275.3069"/><polygon fill="#F1F1F1" points="1655.8369,280.3069,1655.8369,294.3069,1667.8369,294.3069,1667.8369,286.3069,1661.8369,280.3069,1655.8369,280.3069" style="stroke:#181818;stroke-width:0.5;"/><line style="stroke:#181818;stroke-width:0.5;" x1="1661.8369" x2="1661.8369" y1="280.3069" y2="286.3069"/><line style="stroke:#181818;stroke-width:0.5;" x1="1667.8369" x2="1661.8369" y1="286.3069" y2="286.3069"/><text fill="#000000" font-family="sans-serif" font-size="14" lengthAdjust="spacing" textLength="118.0088" x="1534.8282" y="301.302">requirements.txt</text></g><g class="entity" data-qualified-name="GMN29" data-source-line="43" id="ent0030"><path d="M1467.2282,719.0469 L1467.2282,735.1869 L1432.8382,739.1869 L1467.2282,743.1869 L1467.2282,759.3125 A0,0 0 0 0 1467.2282,759.3125 L1768.4327,759.3125 A0,0 0 0 0 1768.4327,759.3125 L1768.4327,729.0469 L1758.4327,719.0469 L1467.2282,719.0469 A0,0 0 0 0 1467.2282,719.0469" fill="#FEFFDD" style="stroke:#181818;stroke-width:0.5;"/><path d="M1758.4327,719.0469 L1758.4327,729.0469 L1768.4327,729.0469 L1758.4327,719.0469" fill="#FEFFDD" style="stroke:#181818;stroke-width:0.5;"/><text fill="#000000" font-family="sans-serif" font-size="13" lengthAdjust="spacing" textLength="246.8794" x="1473.2282" y="736.1138">En produccion/demo no se usa SQLite</text><text fill="#000000" font-family="sans-serif" font-size="13" lengthAdjust="spacing" textLength="280.2046" x="1473.2282" y="751.2466">para evitar perdida por filesystem efimero.</text></g><g class="entity" data-qualified-name="GMN32" data-source-line="48" id="ent0033"><path d="M1465.2082,575.9869 L1465.2082,631.3853 L1740.4508,631.3853 L1740.4508,585.9869 L1730.4508,575.9869 L1465.2082,575.9869" fill="#FEFFDD" style="stroke:#181818;stroke-width:0.5;"/><path d="M1730.4508,575.9869 L1730.4508,585.9869 L1740.4508,585.9869 L1730.4508,575.9869" fill="#FEFFDD" style="stroke:#181818;stroke-width:1;"/><text fill="#000000" font-family="sans-serif" font-size="13" lengthAdjust="spacing" textLength="254.2427" x="1471.2082" y="593.0538">Configuracion documentada para MVP:</text><text fill="#000000" font-family="sans-serif" font-size="13" lengthAdjust="spacing" textLength="142.5684" x="1471.2082" y="608.1866">1 worker + 2 threads.</text><text fill="#000000" font-family="sans-serif" font-size="13" lengthAdjust="spacing" textLength="208.2158" x="1471.2082" y="623.3194">Los locks/cache son in-memory.</text></g><!--link Browser to RenderWeb--><g class="link" data-entity-1="ent0003" data-entity-2="ent0005" data-link-type="dependency" data-source-line="32" id="lnk21"><path d="M1107.8282,131.0869 C1107.8282,154.0869 1107.8282,193.9019 1107.8282,228.4081 C1107.8282,232.7214 1107.8282,236.9517 1107.8282,241.0559 C1107.8282,242.082 1107.8282,243.1001 1107.8282,244.1097 C1107.8282,244.6145 1107.8282,245.1172 1107.8282,245.6176 C1107.8282,245.8678 1107.8282,240.1175 1107.8282,240.3666" fill="none" id="Browser-to-RenderWeb" style="stroke:#181818;stroke-width:1;"/><polygon fill="#181818" points="1107.8282,246.3666,1111.8282,237.3666,1107.8282,241.3666,1103.8282,237.3666,1107.8282,246.3666" style="stroke:#181818;stroke-width:1;"/><text fill="#000000" font-family="sans-serif" font-size="13" lengthAdjust="spacing" textLength="41.7485" x="1108.8282" y="175.6638">HTTPS</text></g><!--link RenderWeb to Gunicorn--><g class="link" data-entity-1="ent0005" data-entity-2="ent0006" data-link-type="dependency" data-source-line="33" id="lnk22"><path d="M1107.7982,296.0869 C1107.0782,298.6319 1095.4457,340.0669 1083.8169,381.4931 C1080.9097,391.8497 1078.0028,402.2057 1075.2666,411.9534 C1074.5826,414.3903 1075.5307,411.0125 1074.8707,413.3638" fill="none" id="RenderWeb-to-Gunicorn" style="stroke:#181818;stroke-width:1;"/><polygon fill="#181818" points="1073.2492,419.1406,1079.5326,411.5565,1074.6004,414.3266,1071.8303,409.3945,1073.2492,419.1406" style="stroke:#181818;stroke-width:1;"/><text fill="#000000" font-family="sans-serif" font-size="13" lengthAdjust="spacing" textLength="141.6353" x="1088.8282" y="375.6738">Request HTTP interno</text></g><!--link Gunicorn to FlaskApp--><g class="link" data-entity-1="ent0006" data-entity-2="ent0007" data-link-type="dependency" data-source-line="34" id="lnk23"><path d="M1059.6482,468.7169 C1057.7982,472.5919 1042.3082,505.1069 1027.0532,537.1306 C1025.1463,541.1336 1023.2431,545.1289 1021.3706,549.0596 C1020.4344,551.025 1022.0862,547.5574 1021.1688,549.4833" fill="none" id="Gunicorn-to-FlaskApp" style="stroke:#181818;stroke-width:1;"/><polygon fill="#181818" points="1018.5885,554.9001,1026.0702,548.4951,1020.7387,550.3861,1018.8477,545.0547,1018.5885,554.9001" style="stroke:#181818;stroke-width:1;"/><text fill="#000000" font-family="sans-serif" font-size="13" lengthAdjust="spacing" textLength="35.0137" x="1044.8282" y="511.3938">WSGI</text></g><!--link FlaskApp to RenderDB--><g class="link" data-entity-1="ent0007" data-entity-2="ent0016" data-link-type="dependency" data-source-line="35" id="lnk24"><path d="M1130.9078,658.0355 C1131.3513,658.2106 1131.795,658.3859 1132.239,658.5613 C1146.4484,664.1732 1160.9773,669.9113 1175.403,675.6086 C1204.2544,687.0031 1227.1125,696.0306 1251.7575,705.7631" fill="none" id="FlaskApp-to-RenderDB" style="stroke:#181818;stroke-width:1;"/><polygon fill="#181818" points="1257.3382,707.9669,1250.4365,700.9407,1252.6876,706.1304,1247.498,708.3815,1257.3382,707.9669" style="stroke:#181818;stroke-width:1;"/><text fill="#000000" font-family="sans-serif" font-size="13" lengthAdjust="spacing" textLength="148.9414" x="1175.8282" y="674.4538">SQLAlchemy / psycopg</text></g><!--link FlaskApp to ModelPT--><g class="link" data-entity-1="ent0007" data-entity-2="ent0013" data-link-type="dependency" data-source-line="36" id="lnk25"><path d="M995.7182,604.6969 C991.0382,605.1169 840.4682,618.9969 728.8282,661.3869 C699.6782,672.4569 694.3582,679.6569 667.8282,696.0369 C656.0682,703.2969 648.3265,708.323 637.4265,715.703" fill="none" id="FlaskApp-to-ModelPT" style="stroke:#181818;stroke-width:1;"/><polygon fill="#181818" points="632.4582,719.0669,642.1532,717.3333,636.5984,716.2636,637.6681,710.7088,632.4582,719.0669" style="stroke:#181818;stroke-width:1;"/><text fill="#000000" font-family="sans-serif" font-size="13" lengthAdjust="spacing" textLength="89.2417" x="729.8282" y="674.4538">carga modelo</text></g><!--link FlaskApp to Preprocessor--><g class="link" data-entity-1="ent0007" data-entity-2="ent0014" data-link-type="dependency" data-source-line="37" id="lnk26"><path d="M995.7682,604.6969 C993.1382,605.3169 908.5482,625.2269 850.8282,661.3869 C825.0382,677.5369 804.129,697.8791 788.419,714.8891" fill="none" id="FlaskApp-to-Preprocessor" style="stroke:#181818;stroke-width:1;"/><polygon fill="#181818" points="784.3482,719.2969,793.3929,715.3992,787.7405,715.6238,787.516,709.9714,784.3482,719.2969" style="stroke:#181818;stroke-width:1;"/><text fill="#000000" font-family="sans-serif" font-size="13" lengthAdjust="spacing" textLength="135.3892" x="851.8282" y="674.4538">carga preprocesador</text></g><!--link FlaskApp to Calibrator--><g class="link" data-entity-1="ent0007" data-entity-2="ent0015" data-link-type="dependency" data-source-line="38" id="lnk27"><path d="M995.8282,604.7869 C995.8282,607.8469 995.8282,676.8769 995.8282,713.0369" fill="none" id="FlaskApp-to-Calibrator" style="stroke:#181818;stroke-width:1;"/><polygon fill="#181818" points="995.8282,719.0369,999.8282,710.0369,995.8282,714.0369,991.8282,710.0369,995.8282,719.0369" style="stroke:#181818;stroke-width:1;"/><text fill="#000000" font-family="sans-serif" font-size="13" lengthAdjust="spacing" textLength="106.2598" x="996.8282" y="674.4538">carga calibrador</text></g><!--link GitHub to RenderWeb--><g class="link" data-entity-1="ent0017" data-entity-2="ent0005" data-link-type="dependency" data-source-line="40" id="lnk28"><path d="M1480.6878,114.2547 C1480.5819,114.2853 1480.4751,114.3161 1480.3673,114.3472 C1480.1518,114.4094 1479.9325,114.4727 1479.7096,114.5372 C1477.9261,115.0531 1475.9078,115.6417 1473.6785,116.2989 C1464.7613,118.9278 1452.4694,122.655 1438.3407,127.2206 C1410.0832,136.3519 1374.4782,148.8369 1343.8282,162.5969 C1289.9282,186.7969 1231.9157,218.9969 1186.8957,245.4594 C1186.5439,245.6661 1191.3641,242.8295 1191.014,243.0356" fill="none" id="GitHub-to-RenderWeb" style="stroke:#181818;stroke-width:1;"/><polygon fill="#181818" points="1185.8429,246.0785,1195.6282,244.9615,1190.1521,243.5427,1191.5709,238.0667,1185.8429,246.0785" style="stroke:#181818;stroke-width:1;"/><text fill="#000000" font-family="sans-serif" font-size="13" lengthAdjust="spacing" textLength="163.6108" x="1344.8282" y="175.6638">Deploy desde rama main</text></g><!--link Gunicorn to GMN32--><g class="link" data-entity-1="ent0006" data-entity-2="ent0033" data-link-type="association" data-source-line="48" id="lnk34"><path d="M1172.1813,496.128 C1173.403,496.4303 1174.6314,496.7343 1175.8663,497.0398 C1180.8057,498.262 1185.8487,499.5098 1190.984,500.7805 C1201.2548,503.3219 1211.895,505.9547 1222.8157,508.6569 C1310.1807,530.2744 1415.4882,556.3319 1493.0682,575.5269" fill="none" id="Gunicorn-GMN32" style="stroke:#181818;stroke-width:1;stroke-dasharray:7,7;"/></g><?plantuml-src RLHHQzim47xthpZoEkBGFkPXq3HREsX7rcGhWy2uo1T7gwNJ93cT6VtlEzcEaxG5OoJTztrtqdrIrB4Yc6iiFHg4WkGBhj9KrWHZM2sMYkkeRGbauO5iGJxBB0jkz3tKw3MFu5y6W3xgBQe8ew-ufn8Bzl18cn5WW9ddvo2ybonJ5TS5Z3gXZjc92HQMvFTQqThkOdHXEfd8lyy-DdkNi_KjBrTiMk5E9b6Jq47gfhPQiRThEnu_ityY7-02nkEuyuH5WCkMUq3rr0FvSuNX2QwSMzlZtbj26v70G3ZTD3gNkwR52MJH390jLr8YZBmeKPXqPRVZDv18nbKue5Q7wHjWY1Yrwb3BTlm6OgekV7_tKDke3RrJiv4DLxcB7J1D5gjtOCwJywme1FRvRzvKkklgucJzNHflSACh7PjV2eNaCPuBN0-hFVqbE_p5AG05HjnWaAOiECJIq_BR7M1XjDKXUd7OsivIk2339tQOpvBHkcu-aEEW9ODckD7njkuoTyDNlhtcGfSCsvfifAv0qJY3zFPhq5Gd2N_Az1NiJwqz6H4AUVmRU-nnCHNONmhnvSSJ7q_XTYM-ouuhAJvuTThAK8Wj3BHKwYrdGpo11vzEuN5vyoKRviTCyva4vJIlAhKZqy04N6WKk_8St7j2i0fzYT0QXiynfouOW8DbqZDmZZysVK3txaZGhE_CwqEPawkuIK-JTBLzg0ngcxeSPQxBNGJU7ll_oKe9NDHAQRQJv0-vtI1MgGEcVUj8cKEFG7iTqOCZN-X2wfQgjhgYq0IvZ41RkJYUyqnq8QNg4suuHZOfu-7WisksMrtM7bD6A5ZLgT6OD5EU-n-BQNO1tMi47-0I-iSep-uuGCNgAKmKIZSW25_RiP6YVNDC_Hy0?></g></svg>