<svg xmlns="http://www.w3.org/2000/svg" xmlns:xlink="http://www.w3.org/1999/xlink" contentStyleType="text/css" data-diagram-type="DESCRIPTION" height="781px" preserveAspectRatio="none" style="width:750px;height:781px;background:#FFFFFF;" version="1.1" viewBox="0 0 750 781" width="750px" zoomAndPan="magnify"><?plantuml 1.2026.4beta2?><defs/><g><g class="title" data-source-line="1"><text fill="#000000" font-family="sans-serif" font-size="14" font-weight="700" lengthAdjust="spacing" textLength="421.5518" x="160.8641" y="22.9951">Diagrama de casos de uso - Vista general TPScouting</text></g><!--cluster TPScouting / Scouting IA--><g class="cluster" data-qualified-name="TPScouting . Scouting IA" data-source-line="11" id="ent0007"><rect fill="none" height="720" rx="2.5" ry="2.5" style="stroke:#181818;stroke-width:1;" width="232.17" x="256.11" y="44.2969"/><text fill="#000000" font-family="sans-serif" font-size="14" font-weight="700" lengthAdjust="spacing" textLength="194.4824" x="274.9538" y="59.292">TPScouting / Scouting IA</text></g><!--entity UC01--><g class="entity" data-qualified-name="TPScouting . Scouting IA.UC01" data-source-line="12" id="ent0008"><ellipse cx="372.1911" cy="420.3011" fill="#F1F1F1" rx="64.3711" ry="15.2742" style="stroke:#181818;stroke-width:0.5;"/><text fill="#000000" font-family="sans-serif" font-size="14" lengthAdjust="spacing" textLength="91.793" x="326.2946" y="424.9495">Iniciar sesion</text></g><!--entity UC02--><g class="entity" data-qualified-name="TPScouting . Scouting IA.UC02" data-source-line="13" id="ent0009"><ellipse cx="372.19" cy="268.2929" fill="#F1F1F1" rx="84.73" ry="19.346" style="stroke:#181818;stroke-width:0.5;"/><text fill="#000000" font-family="sans-serif" font-size="14" lengthAdjust="spacing" textLength="141.7021" x="301.339" y="272.9413">Gestionar jugadores</text></g><!--entity UC03--><g class="entity" data-qualified-name="TPScouting . Scouting IA.UC03" data-source-line="14" id="ent0010"><ellipse cx="372.1875" cy="189.3008" fill="#F1F1F1" rx="84.6975" ry="24.9839" style="stroke:#181818;stroke-width:0.5;"/><text fill="#000000" font-family="sans-serif" font-size="14" lengthAdjust="spacing" textLength="121.126" x="311.6245" y="187.3428">Cargar jugadores</text><text fill="#000000" font-family="sans-serif" font-size="14" lengthAdjust="spacing" textLength="95.4912" x="324.4418" y="203.6397">masivamente</text></g><!--entity UC04--><g class="entity" data-qualified-name="TPScouting . Scouting IA.UC04" data-source-line="15" id="ent0011"><ellipse cx="372.1921" cy="495.2998" fill="#F1F1F1" rx="73.1921" ry="24.6829" style="stroke:#181818;stroke-width:0.5;"/><text fill="#000000" font-family="sans-serif" font-size="14" lengthAdjust="spacing" textLength="105.5127" x="319.4357" y="493.7942">Consultar ficha</text><text fill="#000000" font-family="sans-serif" font-size="14" lengthAdjust="spacing" textLength="75.3867" x="334.4987" y="510.0911">de jugador</text></g><!--entity UC05--><g class="entity" data-qualified-name="TPScouting . Scouting IA.UC05" data-source-line="16" id="ent0012"><ellipse cx="372.1862" cy="346.3012" fill="#F1F1F1" rx="93.6762" ry="24.0243" style="stroke:#181818;stroke-width:0.5;"/><text fill="#000000" font-family="sans-serif" font-size="14" lengthAdjust="spacing" textLength="140.5742" x="301.8991" y="345.8152">Registrar historiales</text><text fill="#000000" font-family="sans-serif" font-size="14" lengthAdjust="spacing" textLength="71.709" x="336.3317" y="362.1121">y reportes</text></g><!--entity UC06--><g class="entity" data-qualified-name="TPScouting . Scouting IA.UC06" data-source-line="17" id="ent0013"><ellipse cx="372.1947" cy="730.2998" fill="#F1F1F1" rx="78.0147" ry="18.0029" style="stroke:#181818;stroke-width:0.5;"/><text fill="#000000" font-family="sans-serif" font-size="14" lengthAdjust="spacing" textLength="125.9727" x="309.2084" y="734.9483">Calcular potencial</text></g><!--entity UC07--><g class="entity" data-qualified-name="TPScouting . Scouting IA.UC07" data-source-line="18" id="ent0014"><ellipse cx="372.1856" cy="653.2935" fill="#F1F1F1" rx="67.5556" ry="24.0866" style="stroke:#181818;stroke-width:0.5;"/><text fill="#000000" font-family="sans-serif" font-size="14" lengthAdjust="spacing" textLength="99.7842" x="322.2936" y="652.7091">Analizar panel</text><text fill="#000000" font-family="sans-serif" font-size="14" lengthAdjust="spacing" textLength="53.2109" x="345.5802" y="669.006">general</text></g><!--entity UC08--><g class="entity" data-qualified-name="TPScouting . Scouting IA.UC08" data-source-line="19" id="ent0015"><ellipse cx="372.1862" cy="574.2941" fill="#F1F1F1" rx="85.4362" ry="19.4872" style="stroke:#181818;stroke-width:0.5;"/><text fill="#000000" font-family="sans-serif" font-size="14" lengthAdjust="spacing" textLength="143.3291" x="300.5217" y="578.9426">Comparar jugadores</text></g><!--entity UC09--><g class="entity" data-qualified-name="TPScouting . Scouting IA.UC09" data-source-line="20" id="ent0016"><ellipse cx="372.1854" cy="104.2998" fill="#F1F1F1" rx="100.0854" ry="24.7929" style="stroke:#181818;stroke-width:0.5;"/><text fill="#000000" font-family="sans-serif" font-size="14" lengthAdjust="spacing" textLength="145.2021" x="299.5843" y="102.628">Administrar usuarios</text><text fill="#000000" font-family="sans-serif" font-size="14" lengthAdjust="spacing" textLength="107.8096" x="318.2806" y="118.9249">y configuracion</text></g><!--entity User--><g class="entity" data-qualified-name="User" data-source-line="5" id="ent0002"><ellipse cx="142.9555" cy="515.6469" fill="#F1F1F1" rx="8" ry="8" style="stroke:#181818;stroke-width:0.5;"/><path d="M142.9555,523.6469 L142.9555,550.6469 M129.9555,531.6469 L155.9555,531.6469 M142.9555,550.6469 L129.9555,565.6469 M142.9555,550.6469 L155.9555,565.6469" fill="none" style="stroke:#181818;stroke-width:0.5;"/><text fill="#000000" font-family="sans-serif" font-size="14" lengthAdjust="spacing" textLength="138.291" x="73.81" y="580.142">Usuario del sistema</text></g><!--entity Admin--><g class="entity" data-qualified-name="Admin" data-source-line="6" id="ent0003"><ellipse cx="142.96" cy="182.6469" fill="#F1F1F1" rx="8" ry="8" style="stroke:#181818;stroke-width:0.5;"/><path d="M142.96,190.6469 L142.96,217.6469 M129.96,198.6469 L155.96,198.6469 M142.96,217.6469 L129.96,232.6469 M142.96,217.6469 L155.96,232.6469" fill="none" style="stroke:#181818;stroke-width:0.5;"/><text fill="#000000" font-family="sans-serif" font-size="14" lengthAdjust="spacing" textLength="99.0801" x="93.42" y="247.142">Administrador</text></g><!--entity Scout--><g class="entity" data-qualified-name="Scout" data-source-line="7" id="ent0004"><ellipse cx="142.9559" cy="293.6469" fill="#F1F1F1" rx="8" ry="8" style="stroke:#181818;stroke-width:0.5;"/><path d="M142.9559,301.6469 L142.9559,328.6469 M129.9559,309.6469 L155.9559,309.6469 M142.9559,328.6469 L129.9559,343.6469 M142.9559,328.6469 L155.9559,343.6469" fill="none" style="stroke:#181818;stroke-width:0.5;"/><text fill="#000000" font-family="sans-serif" font-size="14" lengthAdjust="spacing" textLength="39.5117" x="123.2" y="358.142">Scout</text></g><!--entity Director--><g class="entity" data-qualified-name="Director" data-source-line="8" id="ent0005"><ellipse cx="142.9634" cy="404.6469" fill="#F1F1F1" rx="8" ry="8" style="stroke:#181818;stroke-width:0.5;"/><path d="M142.9634,412.6469 L142.9634,439.6469 M129.9634,420.6469 L155.9634,420.6469 M142.9634,439.6469 L129.9634,454.6469 M142.9634,439.6469 L155.9634,454.6469" fill="none" style="stroke:#181818;stroke-width:0.5;"/><text fill="#000000" font-family="sans-serif" font-size="14" lengthAdjust="spacing" textLength="56.5469" x="114.69" y="469.142">Director</text></g><!--entity ML--><g class="entity" data-qualified-name="ML" data-source-line="9" id="ent0006"><ellipse cx="142.9594" cy="700.6469" fill="#F1F1F1" rx="8" ry="8" style="stroke:#181818;stroke-width:0.5;"/><path d="M142.9594,708.6469 L142.9594,735.6469 M129.9594,716.6469 L155.9594,716.6469 M142.9594,735.6469 L129.9594,750.6469 M142.9594,735.6469 L155.9594,750.6469" fill="none" style="stroke:#181818;stroke-width:0.5;"/><text fill="#000000" font-family="sans-serif" font-size="14" lengthAdjust="spacing" textLength="80.7188" x="102.6" y="765.142">Sistema ML</text></g><g class="entity" data-qualified-name="GMN33" data-source-line="44" id="ent0034"><path d="M536.62,169.1669 L536.62,185.2969 L457.11,189.2969 L536.62,193.2969 L536.62,209.4325 A0,0 0 0 0 536.62,209.4325 L730.9301,209.4325 A0,0 0 0 0 730.9301,209.4325 L730.9301,179.1669 L720.9301,169.1669 L536.62,169.1669 A0,0 0 0 0 536.62,169.1669" fill="#FEFFDD" style="stroke:#181818;stroke-width:0.5;"/><path d="M720.9301,169.1669 L720.9301,179.1669 L730.9301,179.1669 L720.9301,169.1669" fill="#FEFFDD" style="stroke:#181818;stroke-width:0.5;"/><text fill="#000000" font-family="sans-serif" font-size="13" lengthAdjust="spacing" textLength="173.3101" x="542.62" y="186.2338">CSV compatible con Excel.</text><text fill="#000000" font-family="sans-serif" font-size="13" lengthAdjust="spacing" textLength="150.0205" x="542.62" y="201.3666">Sin carga por textarea.</text></g><g class="entity" data-qualified-name="GMN36" data-source-line="49" id="ent0037"><path d="M532.28,702.5969 L532.28,726.2969 L450.37,730.2969 L532.28,734.2969 L532.28,757.9953 A0,0 0 0 0 532.28,757.9953 L735.28,757.9953 A0,0 0 0 0 735.28,757.9953 L735.28,712.5969 L725.28,702.5969 L532.28,702.5969 A0,0 0 0 0 532.28,702.5969" fill="#FEFFDD" style="stroke:#181818;stroke-width:0.5;"/><path d="M725.28,702.5969 L725.28,712.5969 L735.28,712.5969 L725.28,702.5969" fill="#FEFFDD" style="stroke:#181818;stroke-width:0.5;"/><text fill="#000000" font-family="sans-serif" font-size="13" lengthAdjust="spacing" textLength="90.4795" x="538.28" y="719.6638">Usa model.pt,</text><text fill="#000000" font-family="sans-serif" font-size="13" lengthAdjust="spacing" textLength="136.3857" x="538.28" y="734.7966">preprocessor.joblib y</text><text fill="#000000" font-family="sans-serif" font-size="13" lengthAdjust="spacing" textLength="182" x="538.28" y="749.9294">probability_calibrator.joblib.</text></g><!--link Admin to User--><g class="link" data-entity-1="ent0003" data-entity-2="ent0002" data-link-type="extension" data-source-line="23" id="lnk17"><path d="M93.1,235.8969 C74.05,247.7069 54.38,263.9769 43.81,284.7969 C6,359.3069 6,398.2869 43.81,472.7969 C50.72,486.3969 47.5475,486.6747 59.4975,496.4147" fill="none" id="Admin-to-User" style="stroke:#181818;stroke-width:1;"/><polygon fill="none" points="73.45,507.7869,63.2882,491.7638,55.7067,501.0655,73.45,507.7869" style="stroke:#181818;stroke-width:1;"/></g><!--link Scout to User--><g class="link" data-entity-1="ent0004" data-entity-2="ent0002" data-link-type="extension" data-source-line="24" id="lnk18"><path d="M122.89,331.2169 C99.01,341.8569 60.32,363.2869 43.81,395.7969 C28.32,426.3169 28.32,442.2769 43.81,472.7969 C50.72,486.3969 47.5475,486.6747 59.4975,496.4147" fill="none" id="Scout-to-User" style="stroke:#181818;stroke-width:1;"/><polygon fill="none" points="73.45,507.7869,63.2882,491.7638,55.7067,501.0655,73.45,507.7869" style="stroke:#181818;stroke-width:1;"/></g><!--link Director to User--><g class="link" data-entity-1="ent0005" data-entity-2="ent0002" data-link-type="extension" data-source-line="25" id="lnk19"><path d="M142.96,472.7669 C142.96,484.0769 142.96,477.3969 142.96,488.7069" fill="none" id="Director-to-User" style="stroke:#181818;stroke-width:1;"/><polygon fill="none" points="142.96,506.7069,148.96,488.7069,136.96,488.7069,142.96,506.7069" style="stroke:#181818;stroke-width:1;"/></g><!--link User to UC01--><g class="link" data-entity-1="ent0002" data-entity-2="ent0008" data-link-type="dependency" data-source-line="27" id="lnk20"><path d="M192.95,506.9369 C199.5,501.4669 206.04,495.8269 212.11,490.2969 C229.06,474.8369 228.32,464.9069 248.11,453.2969 C268.91,441.0969 288.4508,434.589 310.7608,429.669" fill="none" id="User-to-UC01" style="stroke:#181818;stroke-width:1;"/><polygon fill="#181818" points="316.62,428.3769,306.9698,426.4089,311.7373,429.4536,308.6926,434.2212,316.62,428.3769" style="stroke:#181818;stroke-width:1;"/></g><!--link User to UC04--><g class="link" data-entity-1="ent0002" data-entity-2="ent0011" data-link-type="dependency" data-source-line="28" id="lnk21"><path d="M212.44,530.2269 C243.55,523.3869 274.1704,516.6473 304.3204,510.0073" fill="none" id="User-to-UC04" style="stroke:#181818;stroke-width:1;"/><polygon fill="#181818" points="310.18,508.7169,300.5303,506.7462,305.297,509.7923,302.2509,514.559,310.18,508.7169" style="stroke:#181818;stroke-width:1;"/></g><!--link User to UC06--><g class="link" data-entity-1="ent0002" data-entity-2="ent0013" data-link-type="dependency" data-source-line="29" id="lnk22"><path d="M161.3,583.9069 C178.57,618.0769 208.25,666.8169 248.11,695.2969 C265.01,707.3769 280.1757,713.777 299.9957,718.967" fill="none" id="User-to-UC06" style="stroke:#181818;stroke-width:1;"/><polygon fill="#181818" points="305.8,720.4869,298.1068,714.3375,300.9631,719.2203,296.0803,722.0766,305.8,720.4869" style="stroke:#181818;stroke-width:1;"/></g><!--link User to UC07--><g class="link" data-entity-1="ent0002" data-entity-2="ent0014" data-link-type="dependency" data-source-line="30" id="lnk23"><path d="M199.32,583.7769 C214.7,593.5169 231.7,603.4369 248.11,611.2969 C270.5,622.0269 290.6622,629.4784 312.8922,636.5484" fill="none" id="User-to-UC07" style="stroke:#181818;stroke-width:1;"/><polygon fill="#181818" points="318.61,638.3669,311.2456,631.8273,313.8452,636.8515,308.821,639.451,318.61,638.3669" style="stroke:#181818;stroke-width:1;"/></g><!--link User to UC08--><g class="link" data-entity-1="ent0002" data-entity-2="ent0015" data-link-type="dependency" data-source-line="31" id="lnk24"><path d="M212.44,554.0369 C239.1,557.4369 263.7683,560.5873 290.9583,564.0573" fill="none" id="User-to-UC08" style="stroke:#181818;stroke-width:1;"/><polygon fill="#181818" points="296.91,564.8169,288.4888,559.7097,291.9502,564.1839,287.476,567.6454,296.91,564.8169" style="stroke:#181818;stroke-width:1;"/></g><!--link Admin to UC02--><g class="link" data-entity-1="ent0003" data-entity-2="ent0009" data-link-type="dependency" data-source-line="33" id="lnk25"><path d="M192.99,224.3769 C228.34,233.0969 270.3743,243.4512 307.5843,252.6212" fill="none" id="Admin-to-UC02" style="stroke:#181818;stroke-width:1;"/><polygon fill="#181818" points="313.41,254.0569,305.6286,248.0196,308.5552,252.8605,303.7143,255.7872,313.41,254.0569" style="stroke:#181818;stroke-width:1;"/></g><!--link Scout to UC02--><g class="link" data-entity-1="ent0004" data-entity-2="ent0009" data-link-type="dependency" data-source-line="34" id="lnk26"><path d="M162.94,318.7069 C195.58,310.8069 257.7582,295.7476 307.1982,283.7876" fill="none" id="Scout-to-UC02" style="stroke:#181818;stroke-width:1;"/><polygon fill="#181818" points="313.03,282.3769,303.3418,280.6052,308.1702,283.5525,305.2228,288.3809,313.03,282.3769" style="stroke:#181818;stroke-width:1;"/></g><!--link Admin to UC03--><g class="link" data-entity-1="ent0003" data-entity-2="ent0010" data-link-type="dependency" data-source-line="35" id="lnk27"><path d="M192.99,207.3369 C221.69,204.4269 252.6605,201.2913 285.4505,197.9713" fill="none" id="Admin-to-UC03" style="stroke:#181818;stroke-width:1;"/><polygon fill="#181818" points="291.42,197.3669,282.0628,194.2938,286.4454,197.8706,282.8687,202.2531,291.42,197.3669" style="stroke:#181818;stroke-width:1;"/></g><!--link Scout to UC03--><g class="link" data-entity-1="ent0004" data-entity-2="ent0010" data-link-type="dependency" data-source-line="36" id="lnk28"><path d="M162.97,308.9469 C176.93,298.1669 196.15,282.8369 212.11,268.2969 C229.06,252.8369 228.71,243.5569 248.11,231.2969 C265.66,220.1969 280.7998,213.5196 300.2798,207.1196" fill="none" id="Scout-to-UC03" style="stroke:#181818;stroke-width:1;"/><polygon fill="#181818" points="305.98,205.2469,296.1811,204.2559,301.2298,206.8075,298.6782,211.8562,305.98,205.2469" style="stroke:#181818;stroke-width:1;"/></g><!--link Admin to UC05--><g class="link" data-entity-1="ent0003" data-entity-2="ent0012" data-link-type="dependency" data-source-line="37" id="lnk29"><path d="M192.66,250.2769 C199.31,255.8469 205.96,261.6269 212.11,267.2969 C229.2,283.0869 228.48,292.7969 248.11,305.2969 C264.54,315.7569 278.223,321.9543 296.683,328.0543" fill="none" id="Admin-to-UC05" style="stroke:#181818;stroke-width:1;"/><polygon fill="#181818" points="302.38,329.9369,295.0895,323.315,297.6325,328.3681,292.5794,330.9111,302.38,329.9369" style="stroke:#181818;stroke-width:1;"/></g><!--link Scout to UC05--><g class="link" data-entity-1="ent0004" data-entity-2="ent0012" data-link-type="dependency" data-source-line="38" id="lnk30"><path d="M162.94,325.2169 C189.61,327.9169 233.9105,332.4028 278.3805,336.9028" fill="none" id="Scout-to-UC05" style="stroke:#181818;stroke-width:1;"/><polygon fill="#181818" points="284.35,337.5069,275.7984,332.6211,279.3754,337.0035,274.993,340.5805,284.35,337.5069" style="stroke:#181818;stroke-width:1;"/></g><!--link ML to UC06--><g class="link" data-entity-1="ent0006" data-entity-2="ent0013" data-link-type="dependency" data-source-line="39" id="lnk31"><path d="M183.8,730.2969 C214.22,730.2969 251.07,730.2969 288.12,730.2969" fill="none" id="ML-to-UC06" style="stroke:#181818;stroke-width:1;"/><polygon fill="#181818" points="294.12,730.2969,285.12,726.2969,289.12,730.2969,285.12,734.2969,294.12,730.2969" style="stroke:#181818;stroke-width:1;"/></g><!--link Admin to UC09--><g class="link" data-entity-1="ent0003" data-entity-2="ent0016" data-link-type="dependency" data-source-line="41" id="lnk32"><path d="M192.74,178.7269 C209.8,167.8469 229.37,156.2769 248.11,147.2969 C266.88,138.2969 282.3842,132.1524 301.8142,125.4924" fill="none" id="Admin-to-UC09" style="stroke:#181818;stroke-width:1;"/><polygon fill="#181818" points="307.49,123.5469,297.6793,122.6812,302.7601,125.1681,300.2733,130.249,307.49,123.5469" style="stroke:#181818;stroke-width:1;"/></g><?plantuml-src RLFRRXen47ttLunuBhGD8PUNI8XKLIIGgjBa2QaQpB0uyjfexAr2B__UMIzcrr9Um3FddBblDD4IF1gi66k47O76u4FxQ8A7CRoO414gSiHeuSUtjVPDDAvIoj8-GlJ0fZf4s1ac7OrtIg6Edc7q71fauoMKXI1HgCOHO83dG9mvyrrjd62CEyy9JPuCfsJ9dLxP_PXodGNPk6YwLB1Q9dYrLAebeAkaqL7V07o4o_DfFe8_2gHbalQ5zkICDiWGA4XBNTcBJv-7bAyKsdQ5zDfKRVaKCkzgo5iWLqFInjKOp2-ioKNAYccXy2uqDefeR_G1DqwMSPPd_lMG_vsgD4A6W_nxDcZRD2TWEdgEVLspiYwh6okYeu_af5kRQJT3sjoXDRzR6Zgo6tU-XCozBGklZyZlJUIk27bPEeip7KagLtktDrN3g0SplrV_b4eA6Fzzw8udxQqtymNq7jN-mdZyq6rjQ5qNrarXtHRMtILlPr_blDaiq6c9JajqLg8pjLhs9PJKUwMSREJyMVbz5ssnVf7vo7YZsSeTowZWovicEr5haUhsncIH397Uv7089uhS3jf0xuHhkqQelNoPasFye8voAEmrXU1vykgtrcpX95w_nQsn9fv-QZc2BMEyu7ty_m00?></g></svg>