<svg xmlns="http://www.w3.org/2000/svg" xmlns:xlink="http://www.w3.org/1999/xlink" contentStyleType="text/css" data-diagram-type="DESCRIPTION" height="869px" preserveAspectRatio="none" style="width:458px;height:869px;background:#FFFFFF;" version="1.1" viewBox="0 0 458 869" width="458px" zoomAndPan="magnify"><?plantuml 1.2026.4beta2?><defs/><g><g class="title" data-source-line="1"><text fill="#000000" font-family="sans-serif" font-size="14" font-weight="700" lengthAdjust="spacing" textLength="390.5781" x="30.2359" y="22.9951">Diagrama de casos de uso - Gestion de jugadores</text></g><!--cluster Modulo Jugadores--><g class="cluster" data-qualified-name="Modulo Jugadores" data-source-line="8" id="ent0004"><rect fill="none" height="811" rx="2.5" ry="2.5" style="stroke:#181818;stroke-width:1;" width="225.89" x="218.16" y="44.2969"/><text fill="#000000" font-family="sans-serif" font-size="14" font-weight="700" lengthAdjust="spacing" textLength="141.8457" x="260.1821" y="59.292">Modulo Jugadores</text></g><!--entity UC01--><g class="entity" data-qualified-name="Modulo Jugadores.UC01" data-source-line="9" id="ent0005"><ellipse cx="331.0979" cy="731.2919" fill="#F1F1F1" rx="65.9579" ry="24.765" style="stroke:#181818;stroke-width:0.5;"/><text fill="#000000" font-family="sans-serif" font-size="14" lengthAdjust="spacing" textLength="94.2813" x="283.9572" y="729.6621">Listar y filtrar</text><text fill="#000000" font-family="sans-serif" font-size="14" lengthAdjust="spacing" textLength="69.3438" x="296.426" y="745.959">jugadores</text></g><!--entity UC02--><g class="entity" data-qualified-name="Modulo Jugadores.UC02" data-source-line="10" id="ent0006"><ellipse cx="331.0994" cy="161.2968" fill="#F1F1F1" rx="66.0994" ry="15.6199" style="stroke:#181818;stroke-width:0.5;"/><text fill="#000000" font-family="sans-serif" font-size="14" lengthAdjust="spacing" textLength="96.3662" x="282.9163" y="165.9452">Crear jugador</text></g><!--entity UC03--><g class="entity" data-qualified-name="Modulo Jugadores.UC03" data-source-line="11" id="ent0007"><ellipse cx="331.0993" cy="95.2947" fill="#F1F1F1" rx="67.2393" ry="15.8479" style="stroke:#181818;stroke-width:0.5;"/><text fill="#000000" font-family="sans-serif" font-size="14" lengthAdjust="spacing" textLength="99.333" x="281.4328" y="99.9432">Editar jugador</text></g><!--entity UC04--><g class="entity" data-qualified-name="Modulo Jugadores.UC04" data-source-line="12" id="ent0008"><ellipse cx="331.1019" cy="654.3013" fill="#F1F1F1" rx="73.5719" ry="17.1144" style="stroke:#181818;stroke-width:0.5;"/><text fill="#000000" font-family="sans-serif" font-size="14" lengthAdjust="spacing" textLength="115.2471" x="273.4784" y="658.9497">Eliminar jugador</text></g><!--entity UC05--><g class="entity" data-qualified-name="Modulo Jugadores.UC05" data-source-line="13" id="ent0009"><ellipse cx="331.1028" cy="580.2934" fill="#F1F1F1" rx="95.0328" ry="21.4066" style="stroke:#181818;stroke-width:0.5;"/><text fill="#000000" font-family="sans-serif" font-size="14" lengthAdjust="spacing" textLength="165.0469" x="248.5794" y="584.9419">Descargar plantilla CSV</text></g><!--entity UC06--><g class="entity" data-qualified-name="Modulo Jugadores.UC06" data-source-line="14" id="ent0010"><ellipse cx="331.103" cy="500.2972" fill="#F1F1F1" rx="88.893" ry="23.8003" style="stroke:#181818;stroke-width:0.5;"/><text fill="#000000" font-family="sans-serif" font-size="14" lengthAdjust="spacing" textLength="134.5928" x="263.8066" y="500.1687">Importar jugadores</text><text fill="#000000" font-family="sans-serif" font-size="14" lengthAdjust="spacing" textLength="55.8975" x="303.1542" y="516.4656">por CSV</text></g><!--entity UC07--><g class="entity" data-qualified-name="Modulo Jugadores.UC07" data-source-line="15" id="ent0011"><ellipse cx="331.1024" cy="815.295" fill="#F1F1F1" rx="71.0724" ry="24.0281" style="stroke:#181818;stroke-width:0.5;"/><text fill="#000000" font-family="sans-serif" font-size="14" lengthAdjust="spacing" textLength="105.5127" x="278.3461" y="814.803">Consultar ficha</text><text fill="#000000" font-family="sans-serif" font-size="14" lengthAdjust="spacing" textLength="53.9766" x="304.1141" y="831.0999">integral</text></g><!--entity UC08--><g class="entity" data-qualified-name="Modulo Jugadores.UC08" data-source-line="16" id="ent0012"><ellipse cx="331.0991" cy="417.2983" fill="#F1F1F1" rx="87.6991" ry="24.0314" style="stroke:#181818;stroke-width:0.5;"/><text fill="#000000" font-family="sans-serif" font-size="14" lengthAdjust="spacing" textLength="131.2637" x="265.4673" y="416.8011">Registrar atributos</text><text fill="#000000" font-family="sans-serif" font-size="14" lengthAdjust="spacing" textLength="67.3135" x="297.4424" y="433.098">historicos</text></g><!--entity UC09--><g class="entity" data-qualified-name="Modulo Jugadores.UC09" data-source-line="17" id="ent0013"><ellipse cx="331.0961" cy="338.2981" fill="#F1F1F1" rx="89.9061" ry="20.3812" style="stroke:#181818;stroke-width:0.5;"/><text fill="#000000" font-family="sans-serif" font-size="14" lengthAdjust="spacing" textLength="153.5283" x="254.3319" y="342.9465">Registrar rendimiento</text></g><!--entity UC10--><g class="entity" data-qualified-name="Modulo Jugadores.UC10" data-source-line="18" id="ent0014"><ellipse cx="331.104" cy="247.3004" fill="#F1F1F1" rx="96.944" ry="35.2635" style="stroke:#181818;stroke-width:0.5;"/><text fill="#000000" font-family="sans-serif" font-size="14" lengthAdjust="spacing" textLength="130.2383" x="265.9849" y="236.8425">Registrar partidos,</text><text fill="#000000" font-family="sans-serif" font-size="14" lengthAdjust="spacing" textLength="142.3584" x="259.9248" y="253.1394">fisico, disponibilidad</text><text fill="#000000" font-family="sans-serif" font-size="14" lengthAdjust="spacing" textLength="114.0781" x="274.0649" y="269.4363">y reportes scout</text></g><!--entity Editor--><g class="entity" data-qualified-name="Editor" data-source-line="5" id="ent0002"><ellipse cx="90.0805" cy="421.4969" fill="#F1F1F1" rx="8" ry="8" style="stroke:#181818;stroke-width:0.5;"/><path d="M90.0805,429.4969 L90.0805,456.4969 M77.0805,437.4969 L103.0805,437.4969 M90.0805,456.4969 L77.0805,471.4969 M90.0805,456.4969 L103.0805,471.4969" fill="none" style="stroke:#181818;stroke-width:0.5;"/><text fill="#000000" font-family="sans-serif" font-size="14" lengthAdjust="spacing" textLength="155.1211" x="12.52" y="485.992">Responsable de carga</text><text fill="#000000" font-family="sans-serif" font-size="14" lengthAdjust="spacing" textLength="97.9932" x="12.52" y="502.2889">Admin / Scout</text></g><!--entity Reader--><g class="entity" data-qualified-name="Reader" data-source-line="6" id="ent0003"><ellipse cx="90.0786" cy="735.4969" fill="#F1F1F1" rx="8" ry="8" style="stroke:#181818;stroke-width:0.5;"/><path d="M90.0786,743.4969 L90.0786,770.4969 M77.0786,751.4969 L103.0786,751.4969 M90.0786,770.4969 L77.0786,785.4969 M90.0786,770.4969 L103.0786,785.4969" fill="none" style="stroke:#181818;stroke-width:0.5;"/><text fill="#000000" font-family="sans-serif" font-size="14" lengthAdjust="spacing" textLength="138.8652" x="6" y="799.992">Usuario de consulta</text><text fill="#000000" font-family="sans-serif" font-size="14" lengthAdjust="spacing" textLength="168.1572" x="6" y="816.2889">Admin / Scout / Director</text></g><!--link Editor to UC01--><g class="link" data-entity-1="ent0002" data-entity-2="ent0005" data-link-type="dependency" data-source-line="21" id="lnk15"><path d="M103.84,505.9769 C120.26,557.6869 153.62,640.2169 210.16,689.2969 C227.4,704.2669 244.5578,712.2905 265.7278,718.5705" fill="none" id="Editor-to-UC01" style="stroke:#181818;stroke-width:1;"/><polygon fill="#181818" points="271.48,720.2769,263.9892,713.8825,266.6865,718.8549,261.7141,721.5521,271.48,720.2769" style="stroke:#181818;stroke-width:1;"/></g><!--link Reader to UC01--><g class="link" data-entity-1="ent0003" data-entity-2="ent0005" data-link-type="dependency" data-source-line="22" id="lnk16"><path d="M174.34,758.6669 C206.14,753.0769 235.8107,747.8662 264.9207,742.7462" fill="none" id="Reader-to-UC01" style="stroke:#181818;stroke-width:1;"/><polygon fill="#181818" points="270.83,741.7069,261.2732,739.3264,265.9056,742.573,262.659,747.2054,270.83,741.7069" style="stroke:#181818;stroke-width:1;"/></g><!--link Editor to UC02--><g class="link" data-entity-1="ent0002" data-entity-2="ent0006" data-link-type="dependency" data-source-line="23" id="lnk17"><path d="M99.39,412.7269 C112.45,353.3069 143.51,251.4069 210.16,194.2969 C226.72,180.1069 243.0351,173.2883 263.7951,168.6383" fill="none" id="Editor-to-UC02" style="stroke:#181818;stroke-width:1;"/><polygon fill="#181818" points="269.65,167.3269,259.9933,165.3907,264.7709,168.4197,261.7419,173.1973,269.65,167.3269" style="stroke:#181818;stroke-width:1;"/></g><!--link Editor to UC03--><g class="link" data-entity-1="ent0002" data-entity-2="ent0007" data-link-type="dependency" data-source-line="24" id="lnk18"><path d="M94.57,412.7169 C102.47,341.1169 128.04,204.3369 210.16,128.2969 C225.85,113.7669 241.488,106.8712 261.948,102.2412" fill="none" id="Editor-to-UC03" style="stroke:#181818;stroke-width:1;"/><polygon fill="#181818" points="267.8,100.9169,258.1391,99.002,262.9233,102.0204,259.9048,106.8047,267.8,100.9169" style="stroke:#181818;stroke-width:1;"/></g><!--link Editor to UC04--><g class="link" data-entity-1="ent0002" data-entity-2="ent0008" data-link-type="dependency" data-source-line="25" id="lnk19"><path d="M114.73,505.8169 C135.3,541.7969 168.36,590.2469 210.16,619.2969 C227.61,631.4269 243.4726,637.8987 263.5726,643.1187" fill="none" id="Editor-to-UC04" style="stroke:#181818;stroke-width:1;"/><polygon fill="#181818" points="269.38,644.6269,261.6744,638.493,264.5405,643.3701,259.6635,646.2362,269.38,644.6269" style="stroke:#181818;stroke-width:1;"/></g><!--link Editor to UC05--><g class="link" data-entity-1="ent0002" data-entity-2="ent0009" data-link-type="dependency" data-source-line="26" id="lnk20"><path d="M151.72,506.0369 C169.86,518.6269 190.24,531.4569 210.16,541.2969 C228.32,550.2669 243.2894,556.0372 262.3194,562.0572" fill="none" id="Editor-to-UC05" style="stroke:#181818;stroke-width:1;"/><polygon fill="#181818" points="268.04,563.8669,260.6656,557.3387,263.2728,562.3588,258.2527,564.9661,268.04,563.8669" style="stroke:#181818;stroke-width:1;"/></g><!--link Editor to UC06--><g class="link" data-entity-1="ent0002" data-entity-2="ent0010" data-link-type="dependency" data-source-line="27" id="lnk21"><path d="M168.02,472.4969 C196,477.2969 221.6465,481.6915 249.4265,486.4615" fill="none" id="Editor-to-UC06" style="stroke:#181818;stroke-width:1;"/><polygon fill="#181818" points="255.34,487.4769,247.1467,482.0115,250.4121,486.6307,245.7929,489.8961,255.34,487.4769" style="stroke:#181818;stroke-width:1;"/></g><!--link Editor to UC07--><g class="link" data-entity-1="ent0002" data-entity-2="ent0011" data-link-type="dependency" data-source-line="28" id="lnk22"><path d="M106.35,505.9869 C133.75,588.6369 190.22,753.8669 210.16,773.2969 C225.72,788.4669 241.3205,796.428 261.7005,802.638" fill="none" id="Editor-to-UC07" style="stroke:#181818;stroke-width:1;"/><polygon fill="#181818" points="267.44,804.3869,259.9967,797.9373,262.6571,802.9295,257.6649,805.5899,267.44,804.3869" style="stroke:#181818;stroke-width:1;"/></g><!--link Reader to UC07--><g class="link" data-entity-1="ent0003" data-entity-2="ent0011" data-link-type="dependency" data-source-line="29" id="lnk23"><path d="M174.34,787.9269 C204.93,793.2969 233.1009,798.2467 261.5609,803.2567" fill="none" id="Reader-to-UC07" style="stroke:#181818;stroke-width:1;"/><polygon fill="#181818" points="267.47,804.2969,259.2998,798.7971,262.5457,803.43,257.9128,806.676,267.47,804.2969" style="stroke:#181818;stroke-width:1;"/></g><!--link Editor to UC08--><g class="link" data-entity-1="ent0002" data-entity-2="ent0012" data-link-type="dependency" data-source-line="30" id="lnk24"><path d="M168.02,445.7769 C196.41,440.7869 222.5707,436.1965 250.6507,431.2565" fill="none" id="Editor-to-UC08" style="stroke:#181818;stroke-width:1;"/><polygon fill="#181818" points="256.56,430.2169,247.0031,427.8368,251.6356,431.0832,248.3892,435.7158,256.56,430.2169" style="stroke:#181818;stroke-width:1;"/></g><!--link Editor to UC09--><g class="link" data-entity-1="ent0002" data-entity-2="ent0013" data-link-type="dependency" data-source-line="31" id="lnk25"><path d="M149.35,412.6869 C168.01,399.2969 189.27,385.5669 210.16,375.2969 C228.44,366.3069 243.6198,360.67 262.8198,354.95" fill="none" id="Editor-to-UC09" style="stroke:#181818;stroke-width:1;"/><polygon fill="#181818" points="268.57,353.2369,258.8026,351.973,263.7781,354.6645,261.0867,359.64,268.57,353.2369" style="stroke:#181818;stroke-width:1;"/></g><!--link Editor to UC10--><g class="link" data-entity-1="ent0002" data-entity-2="ent0014" data-link-type="dependency" data-source-line="32" id="lnk26"><path d="M116.98,412.7369 C138.25,377.9769 171.16,331.3269 210.16,300.2969 C224.77,288.6769 236.848,281.518 253.968,273.818" fill="none" id="Editor-to-UC10" style="stroke:#181818;stroke-width:1;"/><polygon fill="#181818" points="259.44,271.3569,249.5912,271.4006,254.88,273.4078,252.8727,278.6966,259.44,271.3569" style="stroke:#181818;stroke-width:1;"/></g><?plantuml-src RP9DRzim38Rl-XL4pWsMz2ljfS2G34M7xP8YE_d2M8p3GX43IZuKm_xxQATk7RKd-wKUadefPiw1OCNOA1uGF46DILBtqoQ1AJnIoYon2xoq3NfHIiu5scN80ihDFeDdfRgZdCCwYy9aJUaeCU7MYlSrjS4gVlS7Zl0DdcjfymGmmG_FnWzPczIYilGPbjs6N2RPTzKt4-tpruIUrBakXB6nRfFVujiWy7Eux0J-EZ0pPCRi-1UdZ0gliEEG5RMABn-aLTmiP_CnlrGo_8qPYCinqNduZ5oT8O7Dn6VeUWojAFLpKZW6Z9b3G5W-_ndOcp7xT3YAZhfIgg95nlpjcOktSQhPhlSsLOwPxCd3G2_6z9eQcv8D1p0hRziiLdvl8L6kvNrETr_dA4LlTYbc6SZxhyaZQcOlwQAAEqvM-i9MgLiStd9WZxwAhrQkiqe9qllMR9RpcVldt6bxO3fzE3tRQHi-zFdvPQ6l2drTw9j2tnPwKVHR5ETtXRu_r_FPVm00?></g></svg>