<svg xmlns="http://www.w3.org/2000/svg" xmlns:xlink="http://www.w3.org/1999/xlink" contentStyleType="text/css" data-diagram-type="DESCRIPTION" height="536px" preserveAspectRatio="none" style="width:761px;height:536px;background:#FFFFFF;" version="1.1" viewBox="0 0 761 536" width="761px" zoomAndPan="magnify"><?plantuml 1.2026.4beta2?><defs/><g><g class="title" data-source-line="1"><text fill="#000000" font-family="sans-serif" font-size="14" font-weight="700" lengthAdjust="spacing" textLength="415.6113" x="169.3643" y="22.9951">Diagrama de casos de uso - Analisis y decision scout</text></g><!--cluster Analisis y decision--><g class="cluster" data-qualified-name="Analisis y decision" data-source-line="8" id="ent0004"><rect fill="none" height="430" rx="2.5" ry="2.5" style="stroke:#181818;stroke-width:1;" width="526.18" x="221.16" y="92.5569"/><text fill="#000000" font-family="sans-serif" font-size="14" font-weight="700" lengthAdjust="spacing" textLength="145.5166" x="411.4917" y="107.552">Analisis y decision</text></g><!--entity UC01--><g class="entity" data-qualified-name="Analisis y decision.UC01" data-source-line="9" id="ent0005"><ellipse cx="333.5407" cy="317.553" fill="#F1F1F1" rx="96.3807" ry="21.6761" style="stroke:#181818;stroke-width:0.5;"/><text fill="#000000" font-family="sans-serif" font-size="14" lengthAdjust="spacing" textLength="168.0479" x="249.5167" y="322.2014">Consultar panel general</text></g><!--entity UC02--><g class="entity" data-qualified-name="Analisis y decision.UC02" data-source-line="10" id="ent0006"><ellipse cx="642.6315" cy="377.5571" fill="#F1F1F1" rx="75.0315" ry="24.8602" style="stroke:#181818;stroke-width:0.5;"/><text fill="#000000" font-family="sans-serif" font-size="14" lengthAdjust="spacing" textLength="107.3994" x="588.9317" y="375.7841">Ver prioridades</text><text fill="#000000" font-family="sans-serif" font-size="14" lengthAdjust="spacing" textLength="81.5186" x="601.8722" y="392.081">de scouting</text></g><!--entity UC03--><g class="entity" data-qualified-name="Analisis y decision.UC03" data-source-line="11" id="ent0007"><ellipse cx="642.63" cy="292.5541" fill="#F1F1F1" rx="88.71" ry="25.4172" style="stroke:#181818;stroke-width:0.5;"/><text fill="#000000" font-family="sans-serif" font-size="14" lengthAdjust="spacing" textLength="124.6191" x="580.3205" y="289.958">Ver alertas fisicas</text><text fill="#000000" font-family="sans-serif" font-size="14" lengthAdjust="spacing" textLength="109.9287" x="587.6657" y="306.2549">y disponibilidad</text></g><!--entity UC04--><g class="entity" data-qualified-name="Analisis y decision.UC04" data-source-line="12" id="ent0008"><ellipse cx="333.5421" cy="398.5598" fill="#F1F1F1" rx="73.1921" ry="24.6829" style="stroke:#181818;stroke-width:0.5;"/><text fill="#000000" font-family="sans-serif" font-size="14" lengthAdjust="spacing" textLength="105.5127" x="280.7857" y="397.0542">Consultar ficha</text><text fill="#000000" font-family="sans-serif" font-size="14" lengthAdjust="spacing" textLength="75.3867" x="295.8487" y="413.3511">de jugador</text></g><!--entity UC05--><g class="entity" data-qualified-name="Analisis y decision.UC05" data-source-line="13" id="ent0009"><ellipse cx="333.5436" cy="482.5604" fill="#F1F1F1" rx="84.5636" ry="24.1035" style="stroke:#181818;stroke-width:0.5;"/><text fill="#000000" font-family="sans-serif" font-size="14" lengthAdjust="spacing" textLength="125.9727" x="270.5573" y="481.9494">Calcular potencial</text><text fill="#000000" font-family="sans-serif" font-size="14" lengthAdjust="spacing" textLength="67.9424" x="299.5724" y="498.2463">individual</text></g><!--entity UC06--><g class="entity" data-qualified-name="Analisis y decision.UC06" data-source-line="14" id="ent0010"><ellipse cx="333.5411" cy="152.5537" fill="#F1F1F1" rx="68.5411" ry="24.6368" style="stroke:#181818;stroke-width:0.5;"/><text fill="#000000" font-family="sans-serif" font-size="14" lengthAdjust="spacing" textLength="98.7314" x="284.1754" y="151.1181">Comparar dos</text><text fill="#000000" font-family="sans-serif" font-size="14" lengthAdjust="spacing" textLength="69.3438" x="298.8692" y="167.415">jugadores</text></g><!--entity UC07--><g class="entity" data-qualified-name="Analisis y decision.UC07" data-source-line="15" id="ent0011"><ellipse cx="333.5427" cy="236.5571" fill="#F1F1F1" rx="92.2027" ry="24.0003" style="stroke:#181818;stroke-width:0.5;"/><text fill="#000000" font-family="sans-serif" font-size="14" lengthAdjust="spacing" textLength="138.4482" x="264.3186" y="236.1093">Comparar multiples</text><text fill="#000000" font-family="sans-serif" font-size="14" lengthAdjust="spacing" textLength="69.3438" x="298.8708" y="252.4062">jugadores</text></g><!--entity UC08--><g class="entity" data-qualified-name="Analisis y decision.UC08" data-source-line="16" id="ent0012"><ellipse cx="642.6315" cy="188.5526" fill="#F1F1F1" rx="79.5515" ry="24.2257" style="stroke:#181818;stroke-width:0.5;"/><text fill="#000000" font-family="sans-serif" font-size="14" lengthAdjust="spacing" textLength="117.5508" x="583.8561" y="187.7501">Revisar metricas</text><text fill="#000000" font-family="sans-serif" font-size="14" lengthAdjust="spacing" textLength="68.332" x="608.4654" y="204.047">y graficos</text></g><!--entity Analyst--><g class="entity" data-qualified-name="Analyst" data-source-line="5" id="ent0002"><ellipse cx="90.0786" cy="239.7569" fill="#F1F1F1" rx="8" ry="8" style="stroke:#181818;stroke-width:0.5;"/><path d="M90.0786,247.7569 L90.0786,274.7569 M77.0786,255.7569 L103.0786,255.7569 M90.0786,274.7569 L77.0786,289.7569 M90.0786,274.7569 L103.0786,289.7569" fill="none" style="stroke:#181818;stroke-width:0.5;"/><text fill="#000000" font-family="sans-serif" font-size="14" lengthAdjust="spacing" textLength="131.8926" x="6" y="304.252">Usuario de analisis</text><text fill="#000000" font-family="sans-serif" font-size="14" lengthAdjust="spacing" textLength="168.1572" x="6" y="320.5489">Admin / Scout / Director</text></g><!--entity ML--><g class="entity" data-qualified-name="ML" data-source-line="6" id="ent0003"><ellipse cx="90.0794" cy="452.9069" fill="#F1F1F1" rx="8" ry="8" style="stroke:#181818;stroke-width:0.5;"/><path d="M90.0794,460.9069 L90.0794,487.9069 M77.0794,468.9069 L103.0794,468.9069 M90.0794,487.9069 L77.0794,502.9069 M90.0794,487.9069 L103.0794,502.9069" fill="none" style="stroke:#181818;stroke-width:0.5;"/><text fill="#000000" font-family="sans-serif" font-size="14" lengthAdjust="spacing" textLength="80.7188" x="49.72" y="517.402">Sistema ML</text></g><!--link Analyst to UC01--><g class="link" data-entity-1="ent0002" data-entity-2="ent0005" data-link-type="dependency" data-source-line="19" id="lnk13"><path d="M174.51,291.3769 C200.55,295.6869 223.2308,299.4454 248.8608,303.6954" fill="none" id="Analyst-to-UC01" style="stroke:#181818;stroke-width:1;"/><polygon fill="#181818" points="254.78,304.6769,246.5556,299.2585,249.8474,303.8589,245.2469,307.1507,254.78,304.6769" style="stroke:#181818;stroke-width:1;"/></g><!--link Analyst to UC04--><g class="link" data-entity-1="ent0002" data-entity-2="ent0008" data-link-type="dependency" data-source-line="20" id="lnk14"><path d="M156.89,324.1769 C174.67,335.6369 194.23,347.2669 213.16,356.5569 C233.57,366.5769 251.2998,373.4537 271.9598,380.3637" fill="none" id="Analyst-to-UC04" style="stroke:#181818;stroke-width:1;"/><polygon fill="#181818" points="277.65,382.2669,270.3835,375.6187,272.9082,380.6809,267.846,383.2056,277.65,382.2669" style="stroke:#181818;stroke-width:1;"/></g><!--link Analyst to UC05--><g class="link" data-entity-1="ent0002" data-entity-2="ent0009" data-link-type="dependency" data-source-line="21" id="lnk15"><path d="M115.84,324.3169 C137.22,360.6269 171.26,409.8069 213.16,440.5569 C229.1,452.2569 242.9099,458.9838 261.4799,465.3038" fill="none" id="Analyst-to-UC05" style="stroke:#181818;stroke-width:1;"/><polygon fill="#181818" points="267.16,467.2369,259.9287,460.5505,262.4266,465.6259,257.3512,468.1239,267.16,467.2369" style="stroke:#181818;stroke-width:1;"/></g><!--link Analyst to UC06--><g class="link" data-entity-1="ent0002" data-entity-2="ent0010" data-link-type="dependency" data-source-line="22" id="lnk16"><path d="M153.16,230.8069 C171.84,218.0069 192.8,204.8369 213.16,194.5569 C234.04,184.0069 252.5117,176.8456 273.6217,169.8856" fill="none" id="Analyst-to-UC06" style="stroke:#181818;stroke-width:1;"/><polygon fill="#181818" points="279.32,168.0069,269.5201,167.0261,274.5714,169.5725,272.0251,174.6238,279.32,168.0069" style="stroke:#181818;stroke-width:1;"/></g><!--link Analyst to UC07--><g class="link" data-entity-1="ent0002" data-entity-2="ent0011" data-link-type="dependency" data-source-line="23" id="lnk17"><path d="M174.51,263.3869 C200.82,258.9269 223.8344,255.0096 249.6744,250.6296" fill="none" id="Analyst-to-UC07" style="stroke:#181818;stroke-width:1;"/><polygon fill="#181818" points="255.59,249.6269,246.0481,247.1872,250.6603,250.4625,247.3851,255.0747,255.59,249.6269" style="stroke:#181818;stroke-width:1;"/></g><!--link Analyst to UC08--><g class="link" data-entity-1="ent0002" data-entity-2="ent0012" data-link-type="dependency" data-source-line="24" id="lnk18"><path d="M110.29,231.0769 C129.68,190.9369 163.84,135.5969 213.16,110.5569 C345.64,43.2969 521.9012,122.3949 599.1412,164.1249" fill="none" id="Analyst-to-UC08" style="stroke:#181818;stroke-width:1;"/><polygon fill="#181818" points="604.42,166.9769,598.403,159.1797,600.021,164.6002,594.6004,166.2181,604.42,166.9769" style="stroke:#181818;stroke-width:1;"/></g><!--link ML to UC05--><g class="link" data-entity-1="ent0003" data-entity-2="ent0009" data-link-type="dependency" data-source-line="25" id="lnk19"><path d="M130.68,482.5569 C162.59,482.5569 202.57,482.5569 242.59,482.5569" fill="none" id="ML-to-UC05" style="stroke:#181818;stroke-width:1;"/><polygon fill="#181818" points="248.59,482.5569,239.59,478.5569,243.59,482.5569,239.59,486.5569,248.59,482.5569" style="stroke:#181818;stroke-width:1;"/></g><!--link UC01 to UC02--><g class="link" data-entity-1="ent0005" data-entity-2="ent0006" data-link-type="dependency" data-source-line="27" id="lnk20"><path d="M407.31,331.7769 C458.93,341.8569 521.6714,354.1162 571.3114,363.8162" fill="none" id="UC01-to-UC02" style="stroke:#181818;stroke-width:1;stroke-dasharray:7,7;"/><polygon fill="#181818" points="577.2,364.9669,569.1342,359.3151,572.2928,364.008,567.5999,367.1666,577.2,364.9669" style="stroke:#181818;stroke-width:1;"/><text fill="#000000" font-family="sans-serif" font-size="13" lengthAdjust="spacing" textLength="62.4482" x="460.92" y="338.6238">&#171;incluye&#187;</text></g><!--link UC01 to UC03--><g class="link" data-entity-1="ent0005" data-entity-2="ent0007" data-link-type="dependency" data-source-line="28" id="lnk21"><path d="M424.6,310.2269 C466.37,306.8269 509.7598,303.2944 550.8498,299.9444" fill="none" id="UC01-to-UC03" style="stroke:#181818;stroke-width:1;stroke-dasharray:7,7;"/><polygon fill="#181818" points="556.83,299.4569,547.5347,296.2014,551.8465,299.8632,548.1848,304.175,556.83,299.4569" style="stroke:#181818;stroke-width:1;"/><text fill="#000000" font-family="sans-serif" font-size="13" lengthAdjust="spacing" textLength="62.4482" x="460.92" y="299.6238">&#171;incluye&#187;</text></g><!--link UC01 to UC08--><g class="link" data-entity-1="ent0005" data-entity-2="ent0012" data-link-type="dependency" data-source-line="29" id="lnk22"><path d="M381.65,298.4469 C397.05,292.1569 414.23,285.0969 429.92,278.5569 C487.06,254.7369 547.0951,229.1304 589.9351,210.7704" fill="none" id="UC01-to-UC08" style="stroke:#181818;stroke-width:1;stroke-dasharray:7,7;"/><polygon fill="#181818" points="595.45,208.4069,585.602,208.2756,590.8543,210.3765,588.7534,215.6287,595.45,208.4069" style="stroke:#181818;stroke-width:1;"/><text fill="#000000" font-family="sans-serif" font-size="13" lengthAdjust="spacing" textLength="62.4482" x="460.92" y="235.6238">&#171;incluye&#187;</text></g><?plantuml-src VL8xRy8m4DxzAqxiq9QtAeI4O8IbY4uiL_i8LpbsP3j8gEf_xoKb1IBKASxtkk-S94wMOCMO1SmH3876w6DrAAE7BYmSMeuSuIoObfDt4BKlarAM3WcIXy3PCO7XG3e9hHJgv0DqTh74mBxAmalAtYrCpWwUO5jbo7DLstpe0CPws3cc9c3BCP6qsgnhThDMgXAZowHpvq6p3dmfaE8aIuXYwLqiRS801Jgoa96ZWBOEsosVNswrxoGgQHlOe24fAgthFTbbZQ7VDg2ba8Gxo7H1zqwgS2oyum-sLL3Z73okTM1zn7hKPvcXkTo2w8TtUhIwjDKMFf7JZ7Rls1a-iIclsupkH-G51h4OBwqkuHGRxVYXDfTIN5Xwv9ZSEjxenB4oK0hDtlB_o3R-pp1LtqfTlYTqk_FV2sy1mpOmQWFZDZ1f0rErML_jgXe3lLxzseTNcCtOQLkUQJw_umR_SDDxxWS0?></g></svg>